<svg width="376" height="364" viewBox="0 0 376 364" fill="none" xmlns="http://www.w3.org/2000/svg">
<g clip-path="url(#clip0_62_189)">
<path d="M151.63 0.139648V12.7396H150.15L142.59 3.33965V12.7396H140.79V0.139648H142.27L149.83 9.53965V0.139648H151.63Z" fill="white"/>
<path d="M169.6 11.1796V12.7496H160.46V0.139648H169.35V1.70965H162.26V5.57965H168.58V7.10965H162.26V11.1796H169.6Z" fill="white"/>
<path d="M185.98 12.7396L183.26 8.86965C182.92 8.88965 182.66 8.90965 182.47 8.90965H179.36V12.7396H177.56V0.139648H182.47C184.1 0.139648 185.39 0.529648 186.32 1.30965C187.26 2.08965 187.72 3.15965 187.72 4.52965C187.72 5.49965 187.48 6.32965 187 7.00965C186.52 7.68965 185.84 8.18965 184.95 8.49965L187.94 12.7296H185.98V12.7396ZM185.02 6.63965C185.62 6.14965 185.92 5.44965 185.92 4.52965C185.92 3.60965 185.62 2.91965 185.02 2.42965C184.42 1.93965 183.55 1.69965 182.41 1.69965H179.35V7.36965H182.41C183.55 7.36965 184.42 7.11965 185.02 6.62965V6.63965Z" fill="white"/>
<path d="M197.93 12.0498C196.91 11.4898 196.11 10.7198 195.53 9.73977C194.95 8.75977 194.66 7.65977 194.66 6.44977C194.66 5.23977 194.95 4.13977 195.53 3.15977C196.11 2.17977 196.91 1.40977 197.93 0.849766C198.95 0.289766 200.1 0.00976562 201.37 0.00976562C202.64 0.00976562 203.77 0.289766 204.79 0.849766C205.81 1.40977 206.61 2.17977 207.18 3.14977C207.76 4.12977 208.04 5.22976 208.04 6.44977C208.04 7.66977 207.75 8.76977 207.18 9.74977C206.6 10.7298 205.81 11.4998 204.79 12.0498C203.77 12.6098 202.63 12.8898 201.37 12.8898C200.11 12.8898 198.95 12.6098 197.93 12.0498ZM203.86 10.6598C204.6 10.2398 205.18 9.65977 205.61 8.91977C206.04 8.17977 206.25 7.35977 206.25 6.44977C206.25 5.53977 206.04 4.70977 205.61 3.96977C205.18 3.22977 204.6 2.64977 203.86 2.22977C203.12 1.80977 202.29 1.59977 201.37 1.59977C200.45 1.59977 199.61 1.80977 198.86 2.22977C198.11 2.64977 197.52 3.22977 197.1 3.96977C196.67 4.70977 196.46 5.52977 196.46 6.44977C196.46 7.36977 196.67 8.18977 197.1 8.91977C197.53 9.65977 198.11 10.2398 198.86 10.6598C199.61 11.0798 200.45 11.2898 201.37 11.2898C202.29 11.2898 203.12 11.0798 203.86 10.6598Z" fill="white"/>
<path d="M215.84 0.139648H217.64V11.1696H224.46V12.7396H215.84V0.139648Z" fill="white"/>
<path d="M231.57 0.139648H233.37V12.7396H231.57V0.139648Z" fill="white"/>
<path d="M137.36 361.69V363.26H128.22V350.66H137.11V352.23H130.02V356.1H136.34V357.63H130.02V361.7H137.36V361.69Z" fill="white"/>
<path d="M146.24 362.96C145.36 362.67 144.67 362.28 144.16 361.82L144.83 360.42C145.31 360.85 145.93 361.2 146.68 361.47C147.43 361.74 148.2 361.87 148.99 361.87C150.03 361.87 150.81 361.69 151.33 361.34C151.85 360.99 152.1 360.52 152.1 359.93C152.1 359.5 151.96 359.15 151.68 358.88C151.4 358.61 151.05 358.4 150.64 358.26C150.23 358.12 149.64 357.95 148.89 357.77C147.94 357.54 147.18 357.31 146.6 357.09C146.02 356.86 145.52 356.51 145.11 356.04C144.7 355.57 144.49 354.93 144.49 354.12C144.49 353.45 144.67 352.84 145.02 352.3C145.37 351.76 145.91 351.33 146.63 351C147.35 350.68 148.24 350.51 149.31 350.51C150.05 350.51 150.79 350.61 151.51 350.8C152.23 350.99 152.85 351.27 153.36 351.63L152.77 353.07C152.24 352.73 151.68 352.48 151.08 352.3C150.48 352.13 149.89 352.04 149.32 352.04C148.3 352.04 147.53 352.23 147.03 352.6C146.52 352.97 146.26 353.45 146.26 354.04C146.26 354.47 146.4 354.82 146.69 355.09C146.98 355.36 147.33 355.57 147.76 355.72C148.19 355.87 148.76 356.03 149.5 356.2C150.45 356.43 151.21 356.66 151.79 356.88C152.37 357.11 152.86 357.46 153.27 357.92C153.68 358.39 153.89 359.02 153.89 359.81C153.89 360.47 153.71 361.07 153.35 361.62C152.99 362.17 152.44 362.6 151.71 362.92C150.98 363.24 150.08 363.4 149.01 363.4C148.06 363.4 147.15 363.25 146.26 362.96H146.24Z" fill="white"/>
<path d="M163.85 352.22H159.53V350.65H169.95V352.22H165.63V363.25H163.85V352.22Z" fill="white"/>
<path d="M175.68 363.02C175.44 362.79 175.32 362.49 175.32 362.13C175.32 361.77 175.44 361.49 175.68 361.26C175.92 361.03 176.21 360.91 176.54 360.91C176.87 360.91 177.16 361.02 177.39 361.25C177.62 361.48 177.73 361.77 177.73 362.13C177.73 362.49 177.61 362.79 177.38 363.02C177.15 363.25 176.87 363.37 176.54 363.37C176.21 363.37 175.92 363.25 175.68 363.02Z" fill="white"/>
<path d="M203.22 361.69V363.26H194.17V362.04L199.3 357.09C199.92 356.49 200.34 355.97 200.56 355.53C200.78 355.09 200.88 354.65 200.88 354.21C200.88 353.55 200.65 353.04 200.19 352.67C199.73 352.3 199.07 352.12 198.2 352.12C196.81 352.12 195.73 352.58 194.98 353.49L193.76 352.43C194.25 351.83 194.9 351.36 195.7 351.03C196.5 350.69 197.39 350.53 198.37 350.53C199.69 350.53 200.74 350.84 201.52 351.48C202.3 352.11 202.69 352.96 202.69 354.04C202.69 354.71 202.55 355.35 202.26 355.95C201.97 356.55 201.43 357.23 200.62 358L196.77 361.71H203.23L203.22 361.69Z" fill="white"/>
<path d="M212.17 362.64C211.4 362.13 210.79 361.39 210.34 360.42C209.9 359.45 209.67 358.3 209.67 356.96C209.67 355.62 209.89 354.48 210.34 353.5C210.78 352.53 211.39 351.79 212.17 351.28C212.94 350.77 213.83 350.51 214.83 350.51C215.83 350.51 216.69 350.77 217.47 351.28C218.24 351.79 218.85 352.53 219.3 353.5C219.74 354.47 219.97 355.62 219.97 356.96C219.97 358.3 219.75 359.44 219.3 360.42C218.86 361.39 218.25 362.13 217.47 362.64C216.7 363.15 215.82 363.41 214.83 363.41C213.84 363.41 212.95 363.16 212.17 362.64ZM217.25 360.56C217.86 359.73 218.16 358.53 218.16 356.96C218.16 355.39 217.86 354.19 217.25 353.36C216.64 352.53 215.84 352.12 214.83 352.12C213.82 352.12 213 352.53 212.39 353.36C211.78 354.19 211.48 355.39 211.48 356.96C211.48 358.53 211.78 359.73 212.39 360.56C213 361.39 213.81 361.8 214.83 361.8C215.85 361.8 216.64 361.39 217.25 360.56Z" fill="white"/>
<path d="M235.53 361.69V363.26H226.48V362.04L231.61 357.09C232.23 356.49 232.65 355.97 232.87 355.53C233.09 355.09 233.19 354.65 233.19 354.21C233.19 353.55 232.96 353.04 232.5 352.67C232.04 352.3 231.38 352.12 230.51 352.12C229.12 352.12 228.04 352.58 227.29 353.49L226.07 352.43C226.56 351.83 227.21 351.36 228.01 351.03C228.81 350.69 229.7 350.53 230.68 350.53C232 350.53 233.05 350.84 233.83 351.48C234.61 352.11 235 352.96 235 354.04C235 354.71 234.86 355.35 234.57 355.95C234.28 356.55 233.74 357.23 232.93 358L229.08 361.71H235.54L235.53 361.69Z" fill="white"/>
<path d="M245.95 350.66V363.26H244.17V352.23H241.33V350.66H245.96H245.95Z" fill="white"/>
<path d="M3.02002 170H21.54V155.26H3.02002V170ZM12.47 156.4H20.41V168.87H12.47V156.4ZM4.16002 156.4H11.34V168.87H4.16002V156.4Z" fill="white"/>
<path d="M68.3999 155.26H49.8799V170H68.3999V155.26ZM58.1899 168.87H51.0099V156.4H58.1899V168.87ZM67.2599 168.87H59.3199V156.4H67.2599V168.87Z" fill="white"/>
<path d="M91.8301 155.26H73.3101V170H91.8301V155.26ZM81.6201 168.87H74.4401V156.4H81.6201V168.87ZM90.6901 168.87H82.7501V156.4H90.6901V168.87Z" fill="white"/>
<path d="M138.69 155.26H120.17V170H138.69V155.26ZM128.48 168.87H121.3V156.4H128.48V168.87ZM137.55 168.87H129.61V156.4H137.55V168.87Z" fill="white"/>
<path d="M162.11 155.26H143.59V170H162.11V155.26ZM151.91 168.87H144.73V156.4H151.91V168.87ZM160.98 168.87H153.04V156.4H160.98V168.87Z" fill="white"/>
<path d="M3.02002 189.65H21.54V174.91H3.02002V189.65ZM12.47 176.05H20.41V188.52H12.47V176.05ZM4.16002 176.05H11.34V188.52H4.16002V176.05Z" fill="white"/>
<path d="M68.3999 174.91H49.8799V189.65H68.3999V174.91ZM58.1899 188.52H51.0099V176.05H58.1899V188.52ZM67.2599 188.52H59.3199V176.05H67.2599V188.52Z" fill="white"/>
<path d="M91.8301 174.91H73.3101V189.65H91.8301V174.91ZM81.6201 188.52H74.4401V176.05H81.6201V188.52ZM90.6901 188.52H82.7501V176.05H90.6901V188.52Z" fill="white"/>
<path d="M138.69 174.91H120.17V189.65H138.69V174.91ZM128.48 188.52H121.3V176.05H128.48V188.52ZM137.55 188.52H129.61V176.05H137.55V188.52Z" fill="white"/>
<path d="M162.11 174.91H143.59V189.65H162.11V174.91ZM151.91 188.52H144.73V176.05H151.91V188.52ZM160.98 188.52H153.04V176.05H160.98V188.52Z" fill="white"/>
<path d="M3.02002 209.3H21.54V194.56H3.02002V209.3ZM12.47 195.7H20.41V208.17H12.47V195.7ZM4.16002 195.7H11.34V208.17H4.16002V195.7Z" fill="white"/>
<path d="M44.97 194.56H26.45V209.3H44.97V194.56ZM34.77 208.17H27.59V195.7H34.77V208.17ZM43.84 208.17H35.9V195.7H43.84V208.17Z" fill="white"/>
<path d="M68.3999 194.56H49.8799V209.3H68.3999V194.56ZM58.1899 208.17H51.0099V195.7H58.1899V208.17ZM67.2599 208.17H59.3199V195.7H67.2599V208.17Z" fill="white"/>
<path d="M91.8301 194.56H73.3101V209.3H91.8301V194.56ZM81.6201 208.17H74.4401V195.7H81.6201V208.17ZM90.6901 208.17H82.7501V195.7H90.6901V208.17Z" fill="white"/>
<path d="M115.26 194.56H96.74V209.3H115.26V194.56ZM105.05 208.17H97.87V195.7H105.05V208.17ZM114.12 208.17H106.18V195.7H114.12V208.17Z" fill="white"/>
<path d="M138.69 194.56H120.17V209.3H138.69V194.56ZM128.48 208.17H121.3V195.7H128.48V208.17ZM137.55 208.17H129.61V195.7H137.55V208.17Z" fill="white"/>
<path d="M162.11 194.56H143.59V209.3H162.11V194.56ZM151.91 208.17H144.73V195.7H151.91V208.17ZM160.98 208.17H153.04V195.7H160.98V208.17Z" fill="white"/>
<path d="M185.54 194.56H167.02V209.3H185.54V194.56ZM175.34 208.17H168.16V195.7H175.34V208.17ZM184.41 208.17H176.47V195.7H184.41V208.17Z" fill="white"/>
<path d="M3.02002 228.95H21.54V214.21H3.02002V228.95ZM12.47 215.35H20.41V227.82H12.47V215.35ZM4.16002 215.35H11.34V227.82H4.16002V215.35Z" fill="white"/>
<path d="M44.97 214.22H26.45V228.96H44.97V214.22ZM34.77 227.82H27.59V215.35H34.77V227.82ZM43.84 227.82H35.9V215.35H43.84V227.82Z" fill="white"/>
<path d="M68.3999 214.22H49.8799V228.96H68.3999V214.22ZM58.1899 227.82H51.0099V215.35H58.1899V227.82ZM67.2599 227.82H59.3199V215.35H67.2599V227.82Z" fill="white"/>
<path d="M91.8301 214.22H73.3101V228.96H91.8301V214.22ZM81.6201 227.82H74.4401V215.35H81.6201V227.82ZM90.6901 227.82H82.7501V215.35H90.6901V227.82Z" fill="white"/>
<path d="M115.26 214.22H96.74V228.96H115.26V214.22ZM105.05 227.82H97.87V215.35H105.05V227.82ZM114.12 227.82H106.18V215.35H114.12V227.82Z" fill="white"/>
<path d="M138.69 214.22H120.17V228.96H138.69V214.22ZM128.48 227.82H121.3V215.35H128.48V227.82ZM137.55 227.82H129.61V215.35H137.55V227.82Z" fill="white"/>
<path d="M162.11 214.22H143.59V228.96H162.11V214.22ZM151.91 227.82H144.73V215.35H151.91V227.82ZM160.98 227.82H153.04V215.35H160.98V227.82Z" fill="white"/>
<path d="M185.54 214.22H167.02V228.96H185.54V214.22ZM175.34 227.82H168.16V215.35H175.34V227.82ZM184.41 227.82H176.47V215.35H184.41V227.82Z" fill="white"/>
<path d="M44.97 155.26H26.45V189.65H44.97V155.26ZM34.77 188.52H27.59V173.03H34.77V188.52ZM34.77 171.89H27.59V156.4H34.77V171.89ZM43.84 188.52H35.9V173.03H43.84V188.52ZM43.84 171.89H35.9V156.4H43.84V171.89Z" fill="white"/>
<path d="M115.26 155.26H96.74V189.65H115.26V155.26ZM105.05 188.52H97.87V173.03H105.05V188.52ZM105.05 171.89H97.87V156.4H105.05V171.89ZM114.12 188.52H106.18V173.03H114.12V188.52ZM114.12 171.89H106.18V156.4H114.12V171.89Z" fill="white"/>
<path d="M185.54 155.26H167.02V189.65H185.54V155.26ZM175.34 188.52H168.16V173.03H175.34V188.52ZM175.34 171.89H168.16V156.4H175.34V171.89ZM184.41 188.52H176.47V173.03H184.41V188.52ZM184.41 171.89H176.47V156.4H184.41V171.89Z" fill="white"/>
<path d="M201.42 111.05V109.72C201.42 102.51 195.55 96.6401 188.34 96.6401C180.95 96.6901 174.92 102.59 174.62 109.91H174.59V144.3H201.42V111.05ZM182.9 143.17H175.72V135.99H182.9V143.17ZM182.9 134.86H175.72V127.68H182.9V134.86ZM182.9 126.54H175.72V119.36H182.9V126.54ZM182.9 118.23H175.72V111.05H182.9V118.23ZM191.97 143.17H184.03V135.99H191.97V143.17ZM191.97 134.86H184.03V127.68H191.97V134.86ZM191.97 126.54H184.03V119.36H191.97V126.54ZM191.97 118.23H184.03V111.05H191.97V118.23ZM200.28 143.17H193.1V135.99H200.28V143.17ZM200.28 134.86H193.1V127.68H200.28V134.86ZM200.28 126.54H193.1V119.36H200.28V126.54ZM200.28 118.23H193.1V111.05H200.28V118.23ZM200.28 109.92H175.73C176.03 103.22 181.57 97.8301 188.34 97.7801C194.93 97.7801 200.28 103.14 200.28 109.72V109.91V109.92Z" fill="white"/>
<path d="M372.98 155.26H354.46V170H372.98V155.26ZM363.53 168.87H355.59V156.4H363.53V168.87ZM371.84 168.87H364.66V156.4H371.84V168.87Z" fill="white"/>
<path d="M326.12 155.26H307.6V170H326.12V155.26ZM316.67 168.87H308.73V156.4H316.67V168.87ZM324.98 168.87H317.8V156.4H324.98V168.87Z" fill="white"/>
<path d="M302.69 155.26H284.17V170H302.69V155.26ZM293.24 168.87H285.3V156.4H293.24V168.87ZM301.56 168.87H294.38V156.4H301.56V168.87Z" fill="white"/>
<path d="M255.83 155.26H237.31V170H255.83V155.26ZM246.38 168.87H238.44V156.4H246.38V168.87ZM254.7 168.87H247.52V156.4H254.7V168.87Z" fill="white"/>
<path d="M232.4 155.26H213.88V170H232.4V155.26ZM222.95 168.87H215.01V156.4H222.95V168.87ZM231.27 168.87H224.09V156.4H231.27V168.87Z" fill="white"/>
<path d="M372.98 174.91H354.46V189.65H372.98V174.91ZM363.53 188.52H355.59V176.05H363.53V188.52ZM371.84 188.52H364.66V176.05H371.84V188.52Z" fill="white"/>
<path d="M326.12 174.91H307.6V189.65H326.12V174.91ZM316.67 188.52H308.73V176.05H316.67V188.52ZM324.98 188.52H317.8V176.05H324.98V188.52Z" fill="white"/>
<path d="M302.69 174.91H284.17V189.65H302.69V174.91ZM293.24 188.52H285.3V176.05H293.24V188.52ZM301.56 188.52H294.38V176.05H301.56V188.52Z" fill="white"/>
<path d="M255.83 174.91H237.31V189.65H255.83V174.91ZM246.38 188.52H238.44V176.05H246.38V188.52ZM254.7 188.52H247.52V176.05H254.7V188.52Z" fill="white"/>
<path d="M232.4 174.91H213.88V189.65H232.4V174.91ZM222.95 188.52H215.01V176.05H222.95V188.52ZM231.27 188.52H224.09V176.05H231.27V188.52Z" fill="white"/>
<path d="M372.98 194.56H354.46V209.3H372.98V194.56ZM363.53 208.17H355.59V195.7H363.53V208.17ZM371.84 208.17H364.66V195.7H371.84V208.17Z" fill="white"/>
<path d="M349.55 194.56H331.03V209.3H349.55V194.56ZM340.1 208.17H332.16V195.7H340.1V208.17ZM348.41 208.17H341.23V195.7H348.41V208.17Z" fill="white"/>
<path d="M326.12 194.56H307.6V209.3H326.12V194.56ZM316.67 208.17H308.73V195.7H316.67V208.17ZM324.98 208.17H317.8V195.7H324.98V208.17Z" fill="white"/>
<path d="M302.69 194.56H284.17V209.3H302.69V194.56ZM293.24 208.17H285.3V195.7H293.24V208.17ZM301.56 208.17H294.38V195.7H301.56V208.17Z" fill="white"/>
<path d="M279.26 194.56H260.74V209.3H279.26V194.56ZM269.81 208.17H261.87V195.7H269.81V208.17ZM278.13 208.17H270.95V195.7H278.13V208.17Z" fill="white"/>
<path d="M255.83 194.56H237.31V209.3H255.83V194.56ZM246.38 208.17H238.44V195.7H246.38V208.17ZM254.7 208.17H247.52V195.7H254.7V208.17Z" fill="white"/>
<path d="M232.4 194.56H213.88V209.3H232.4V194.56ZM222.95 208.17H215.01V195.7H222.95V208.17ZM231.27 208.17H224.09V195.7H231.27V208.17Z" fill="white"/>
<path d="M208.97 194.56H190.45V209.3H208.97V194.56ZM199.53 208.17H191.59V195.7H199.53V208.17ZM207.84 208.17H200.66V195.7H207.84V208.17Z" fill="white"/>
<path d="M372.98 214.22H354.46V228.96H372.98V214.22ZM363.53 227.82H355.59V215.35H363.53V227.82ZM371.84 227.82H364.66V215.35H371.84V227.82Z" fill="white"/>
<path d="M349.55 214.22H331.03V228.96H349.55V214.22ZM340.1 227.82H332.16V215.35H340.1V227.82ZM348.41 227.82H341.23V215.35H348.41V227.82Z" fill="white"/>
<path d="M326.12 214.22H307.6V228.96H326.12V214.22ZM316.67 227.82H308.73V215.35H316.67V227.82ZM324.98 227.82H317.8V215.35H324.98V227.82Z" fill="white"/>
<path d="M302.69 214.22H284.17V228.96H302.69V214.22ZM293.24 227.82H285.3V215.35H293.24V227.82ZM301.56 227.82H294.38V215.35H301.56V227.82Z" fill="white"/>
<path d="M279.26 214.22H260.74V228.96H279.26V214.22ZM269.81 227.82H261.87V215.35H269.81V227.82ZM278.13 227.82H270.95V215.35H278.13V227.82Z" fill="white"/>
<path d="M255.83 214.22H237.31V228.96H255.83V214.22ZM246.38 227.82H238.44V215.35H246.38V227.82ZM254.7 227.82H247.52V215.35H254.7V227.82Z" fill="white"/>
<path d="M232.4 214.22H213.88V228.96H232.4V214.22ZM222.95 227.82H215.01V215.35H222.95V227.82ZM231.27 227.82H224.09V215.35H231.27V227.82Z" fill="white"/>
<path d="M208.97 214.22H190.45V228.96H208.97V214.22ZM199.53 227.82H191.59V215.35H199.53V227.82ZM207.84 227.82H200.66V215.35H207.84V227.82Z" fill="white"/>
<path d="M3.02002 248.6H21.54V233.86H3.02002V248.6ZM12.47 235H20.41V247.47H12.47V235ZM4.16002 235H11.34V247.47H4.16002V235Z" fill="white"/>
<path d="M26.45 248.6H44.97V233.86H26.45V248.6ZM35.9 235H43.84V247.47H35.9V235ZM27.59 235H34.77V247.47H27.59V235Z" fill="white"/>
<path d="M49.8799 248.6H68.3999V233.86H49.8799V248.6ZM59.3299 235H67.2699V247.47H59.3299V235ZM51.0199 235H58.1999V247.47H51.0199V235Z" fill="white"/>
<path d="M73.3101 248.6H91.8301V233.86H73.3101V248.6ZM82.7601 235H90.7001V247.47H82.7601V235ZM74.4401 235H81.6201V247.47H74.4401V235Z" fill="white"/>
<path d="M96.74 248.6H115.26V233.86H96.74V248.6ZM106.19 235H114.13V247.47H106.19V235ZM97.87 235H105.05V247.47H97.87V235Z" fill="white"/>
<path d="M120.17 248.6H138.69V233.86H120.17V248.6ZM129.62 235H137.56V247.47H129.62V235ZM121.3 235H128.48V247.47H121.3V235Z" fill="white"/>
<path d="M143.6 248.6H162.12V233.86H143.6V248.6ZM153.05 235H160.99V247.47H153.05V235ZM144.73 235H151.91V247.47H144.73V235Z" fill="white"/>
<path d="M185.54 233.87H167.02V248.61H185.54V233.87ZM175.34 247.47H168.16V235H175.34V247.47ZM184.41 247.47H176.47V235H184.41V247.47Z" fill="white"/>
<path d="M372.98 233.87H354.46V248.61H372.98V233.87ZM363.53 247.47H355.59V235H363.53V247.47ZM371.84 247.47H364.66V235H371.84V247.47Z" fill="white"/>
<path d="M331.03 248.6H349.55V233.86H331.03V248.6ZM341.23 235H348.41V247.47H341.23V235ZM332.16 235H340.1V247.47H332.16V235Z" fill="white"/>
<path d="M307.6 248.6H326.12V233.86H307.6V248.6ZM317.81 235H324.99V247.47H317.81V235ZM308.74 235H316.68V247.47H308.74V235Z" fill="white"/>
<path d="M284.17 248.6H302.69V233.86H284.17V248.6ZM294.38 235H301.56V247.47H294.38V235ZM285.31 235H293.25V247.47H285.31V235Z" fill="white"/>
<path d="M260.74 248.6H279.26V233.86H260.74V248.6ZM270.95 235H278.13V247.47H270.95V235ZM261.88 235H269.82V247.47H261.88V235Z" fill="white"/>
<path d="M237.31 248.6H255.83V233.86H237.31V248.6ZM247.52 235H254.7V247.47H247.52V235ZM238.45 235H246.39V247.47H238.45V235Z" fill="white"/>
<path d="M213.89 248.6H232.41V233.86H213.89V248.6ZM224.09 235H231.27V247.47H224.09V235ZM215.02 235H222.96V247.47H215.02V235Z" fill="white"/>
<path d="M208.97 233.87H190.45V248.61H208.97V233.87ZM199.53 247.47H191.59V235H199.53V247.47ZM207.84 247.47H200.66V235H207.84V247.47Z" fill="white"/>
<path d="M331.03 189.65H349.55V155.26H331.03V189.65ZM341.23 156.4H348.41V171.89H341.23V156.4ZM341.23 173.03H348.41V188.52H341.23V173.03ZM332.16 156.4H340.1V171.89H332.16V156.4ZM332.16 173.03H340.1V188.52H332.16V173.03Z" fill="white"/>
<path d="M279.26 155.26H260.74V189.65H279.26V155.26ZM269.81 188.52H261.87V173.03H269.81V188.52ZM269.81 171.89H261.87V156.4H269.81V171.89ZM278.13 188.52H270.95V173.03H278.13V188.52ZM278.13 171.89H270.95V156.4H278.13V171.89Z" fill="white"/>
<path d="M208.97 155.26H190.45V189.65H208.97V155.26ZM199.53 188.52H191.59V173.03H199.53V188.52ZM199.53 171.89H191.59V156.4H199.53V171.89ZM207.84 188.52H200.66V173.03H207.84V188.52ZM207.84 171.89H200.66V156.4H207.84V171.89Z" fill="white"/>
<path d="M354.08 119.44V109.72C354.08 102.51 348.21 96.64 341 96.64C339.37 96.65 337.82 96.96 336.36 97.49L331.11 91.01H313.27V81.18H145.49V55.48H138.31V81.18H62.73V91.01H44.89L39.78 97.31C38.49 96.88 37.11 96.64 35.67 96.64C28.28 96.69 22.25 102.59 21.95 109.91H21.92V119.44L0 146.56V301.51H376V146.56L354.08 119.44ZM341.01 97.78C347.6 97.78 352.95 103.14 352.95 109.72V109.91H328.4C328.7 103.21 334.24 97.82 341.01 97.77V97.78ZM345.77 134.86V127.68H352.95V134.86H345.77ZM352.95 135.99V143.17H345.77V135.99H352.95ZM345.77 126.54V119.36H352.95V126.54H345.77ZM345.77 118.23V111.05H352.95V118.23H345.77ZM336.7 134.86V127.68H344.64V134.86H336.7ZM344.64 135.99V143.17H336.7V135.99H344.64ZM336.7 126.54V119.36H344.64V126.54H336.7ZM336.7 118.23V111.05H344.64V118.23H336.7ZM328.39 134.86V127.68H335.57V134.86H328.39ZM335.57 135.99V143.17H328.39V135.99H335.57ZM328.39 126.54V119.36H335.57V126.54H328.39ZM328.39 118.23V111.05H335.57V118.23H328.39ZM139.44 56.64H144.35V81.2H139.44V56.64ZM63.86 82.33H312.13V91.02H63.86V82.33ZM35.67 97.78C42.26 97.78 47.61 103.14 47.61 109.72V109.91H23.06C23.36 103.21 28.9 97.82 35.67 97.77V97.78ZM40.43 134.86V127.68H47.61V134.86H40.43ZM47.61 135.99V143.17H40.43V135.99H47.61ZM40.43 126.54V119.36H47.61V126.54H40.43ZM40.43 118.23V111.05H47.61V118.23H40.43ZM31.36 134.86V127.68H39.3V134.86H31.36ZM39.3 135.99V143.17H31.36V135.99H39.3ZM31.36 126.54V119.36H39.3V126.54H31.36ZM31.36 118.23V111.05H39.3V118.23H31.36ZM23.05 111.05H30.23V118.23H23.05V111.05ZM23.05 119.36H30.23V126.54H23.05V119.36ZM23.05 127.68H30.23V134.86H23.05V127.68ZM23.05 135.99H30.23V143.17H23.05V135.99ZM21.92 121.25V144.31H48.75V109.73C48.75 104.38 45.51 99.77 40.9 97.75L45.43 92.16H330.57L335.27 97.95C330.71 100.08 327.49 104.62 327.28 109.92H327.25V144.31H354.08V121.25L374.24 146.2H1.75L21.91 121.25H21.92ZM329.14 250.49V231.97H351.44V250.49H329.14ZM348.41 251.63V265.61H332.16V251.63H348.41ZM305.71 250.49V231.97H328.01V250.49H305.71ZM324.98 251.63V265.61H308.73V251.63H324.98ZM282.28 250.49V231.97H304.58V250.49H282.28ZM301.56 251.63V265.61H285.31V251.63H301.56ZM258.85 250.49V231.97H281.15V250.49H258.85ZM278.13 251.63V265.61H261.88V251.63H278.13ZM235.43 250.49V231.97H257.73V250.49H235.43ZM254.7 251.63V265.61H238.45V251.63H254.7ZM118.28 250.49V231.97H140.58V250.49H118.28ZM137.55 251.63V265.61H121.3V251.63H137.55ZM94.85 250.49V231.97H117.15V250.49H94.85ZM114.12 251.63V265.61H97.87V251.63H114.12ZM71.42 250.49V231.97H93.72V250.49H71.42ZM90.69 251.63V265.61H74.44V251.63H90.69ZM47.99 250.49V231.97H70.29V250.49H47.99ZM67.26 251.63V265.61H51.01V251.63H67.26ZM46.86 153.37V191.54H24.56V153.37H46.86ZM24.56 152.24V147.33H46.86V152.24H24.56ZM46.86 192.68V211.2H24.56V192.68H46.86ZM46.86 212.33V230.85H24.56V212.33H46.86ZM49.88 251.63V265.61H44.97V251.63H49.88ZM70.29 153.37V171.89H47.99V153.37H70.29ZM47.99 152.24V147.33H70.29V152.24H47.99ZM70.29 173.03V191.55H47.99V173.03H70.29ZM70.29 192.68V211.2H47.99V192.68H70.29ZM70.29 212.33V230.85H47.99V212.33H70.29ZM68.4 251.63H73.31V265.61H68.4V251.63ZM93.72 153.37V171.89H71.42V153.37H93.72ZM71.42 152.24V147.33H93.72V152.24H71.42ZM93.72 173.03V191.55H71.42V173.03H93.72ZM93.72 192.68V211.2H71.42V192.68H93.72ZM93.72 212.33V230.85H71.42V212.33H93.72ZM91.83 251.63H96.74V265.61H91.83V251.63ZM117.15 153.37V191.54H94.85V153.37H117.15ZM94.85 152.24V147.33H117.15V152.24H94.85ZM117.15 192.68V211.2H94.85V192.68H117.15ZM117.15 212.33V230.85H94.85V212.33H117.15ZM115.26 251.63H120.17V265.61H115.26V251.63ZM140.57 153.37V171.89H118.27V153.37H140.57ZM118.28 152.24V147.33H140.58V152.24H118.28ZM140.57 173.03V191.55H118.27V173.03H140.57ZM140.57 192.68V211.2H118.27V192.68H140.57ZM140.57 212.33V230.85H118.27V212.33H140.57ZM138.69 251.63H143.6V265.61H138.69V251.63ZM141.71 250.49V231.97H164.01V250.49H141.71ZM164 153.37V171.89H141.7V153.37H164ZM141.71 152.24V147.33H164.01V152.24H141.71ZM164 173.03V191.55H141.7V173.03H164ZM164 192.68V211.2H141.7V192.68H164ZM164 212.33V230.85H141.7V212.33H164ZM144.73 251.63H231.27V265.61H144.73V251.63ZM187.43 153.37V191.54H165.13V153.37H187.43ZM165.14 152.24V147.33H187.44V152.24H165.14ZM187.43 192.68V211.2H165.13V192.68H187.43ZM187.43 212.33V230.85H165.13V212.33H187.43ZM187.43 231.98V250.5H165.13V231.98H187.43ZM210.86 153.37V191.54H188.56V153.37H210.86ZM188.57 152.24V147.33H210.87V152.24H188.57ZM210.86 192.68V211.2H188.56V192.68H210.86ZM210.86 212.33V230.85H188.56V212.33H210.86ZM210.86 231.98V250.5H188.56V231.98H210.86ZM212 250.49V231.97H234.3V250.49H212ZM234.29 153.37V171.89H211.99V153.37H234.29ZM212 152.24V147.33H234.3V152.24H212ZM234.29 173.03V191.55H211.99V173.03H234.29ZM234.29 192.68V211.2H211.99V192.68H234.29ZM234.29 212.33V230.85H211.99V212.33H234.29ZM232.4 251.63H237.31V265.61H232.4V251.63ZM257.72 153.37V171.89H235.42V153.37H257.72ZM235.43 152.24V147.33H257.73V152.24H235.43ZM257.72 173.03V191.55H235.42V173.03H257.72ZM257.72 192.68V211.2H235.42V192.68H257.72ZM257.72 212.33V230.85H235.42V212.33H257.72ZM255.83 251.63H260.74V265.61H255.83V251.63ZM281.15 153.37V191.54H258.85V153.37H281.15ZM258.85 152.24V147.33H281.15V152.24H258.85ZM281.15 192.68V211.2H258.85V192.68H281.15ZM281.15 212.33V230.85H258.85V212.33H281.15ZM279.26 251.63H284.17V265.61H279.26V251.63ZM304.58 153.37V171.89H282.28V153.37H304.58ZM282.28 152.24V147.33H304.58V152.24H282.28ZM304.58 173.03V191.55H282.28V173.03H304.58ZM304.58 192.68V211.2H282.28V192.68H304.58ZM304.58 212.33V230.85H282.28V212.33H304.58ZM302.69 251.63H307.6V265.61H302.69V251.63ZM328.01 153.37V171.89H305.71V153.37H328.01ZM305.71 152.24V147.33H328.01V152.24H305.71ZM328.01 173.03V191.55H305.71V173.03H328.01ZM328.01 192.68V211.2H305.71V192.68H328.01ZM328.01 212.33V230.85H305.71V212.33H328.01ZM326.12 251.63H331.03V265.61H326.12V251.63ZM351.44 192.68V211.2H329.14V192.68H351.44ZM329.14 191.54V153.37H351.44V191.54H329.14ZM351.44 212.33V230.85H329.14V212.33H351.44ZM349.55 251.63H354.46V265.61H349.55V251.63ZM351.44 152.24H329.14V147.33H351.44V152.24ZM1.13 147.33H23.43V152.24H1.13V147.33ZM1.13 153.37H23.43V171.89H1.13V153.37ZM1.13 173.03H23.43V191.55H1.13V173.03ZM1.13 192.68H23.43V211.2H1.13V192.68ZM1.13 212.33H23.43V230.85H1.13V212.33ZM1.13 231.98H46.85V250.5H1.13V231.98ZM43.84 251.63V265.61H27.59V251.63H43.84ZM26.45 251.63V265.61H21.54V251.63H26.45ZM20.41 251.63V265.61H7.18V251.63H20.41ZM1.13 251.63H6.04V265.61H1.13V251.63ZM1.13 271.28H6.04V295.84H1.13V271.28ZM160.98 300.37H1.13V296.97H160.98V300.37ZM7.18 295.84V271.28H20.41V295.84H7.18ZM21.54 295.84V271.28H26.45V295.84H21.54ZM27.59 295.84V271.28H43.84V295.84H27.59ZM44.97 295.84V271.28H49.88V295.84H44.97ZM51.02 295.84V271.28H67.27V295.84H51.02ZM68.4 295.84V271.28H73.31V295.84H68.4ZM74.44 295.84V271.28H90.69V295.84H74.44ZM91.83 295.84V271.28H96.74V295.84H91.83ZM97.87 295.84V271.28H114.12V295.84H97.87ZM115.26 295.84V271.28H120.17V295.84H115.26ZM121.3 295.84V271.28H137.55V295.84H121.3ZM138.69 295.84V271.28H143.6V295.84H138.69ZM160.98 295.84H144.73V271.28H160.98V295.84ZM167.03 300.37H162.12V271.27H167.03V300.37ZM187.43 300.37H168.16V275.81H187.43V300.37ZM187.43 274.68H168.16V271.28H187.43V274.68ZM207.84 300.37H188.57V275.81H207.84V300.37ZM207.84 274.68H188.57V271.28H207.84V274.68ZM213.89 300.37H208.98V271.27H213.89V300.37ZM374.87 300.37H215.02V296.97H374.87V300.37ZM215.02 295.84V271.28H231.27V295.84H215.02ZM232.4 295.84V271.28H237.31V295.84H232.4ZM238.45 295.84V271.28H254.7V295.84H238.45ZM255.83 295.84V271.28H260.74V295.84H255.83ZM261.88 295.84V271.28H278.13V295.84H261.88ZM279.26 295.84V271.28H284.17V295.84H279.26ZM285.31 295.84V271.28H301.56V295.84H285.31ZM302.69 295.84V271.28H307.6V295.84H302.69ZM308.74 295.84V271.28H324.99V295.84H308.74ZM326.12 295.84V271.28H331.03V295.84H326.12ZM332.16 295.84V271.28H348.41V295.84H332.16ZM349.55 295.84V271.28H354.46V295.84H349.55ZM355.59 295.84V271.28H368.82V295.84H355.59ZM374.87 295.84H369.96V271.28H374.87V295.84ZM374.87 270.14H1.13V266.74H374.86V270.14H374.87ZM355.59 265.61V251.63H368.82V265.61H355.59ZM374.87 265.61H369.96V251.63H374.87V265.61ZM374.87 250.49H352.57V231.97H374.87V250.49ZM374.87 230.84H352.57V212.32H374.87V230.84ZM374.87 211.19H352.57V192.67H374.87V211.19ZM374.87 191.54H352.57V173.02H374.87V191.54ZM374.87 171.89H352.57V153.37H374.87V171.89ZM374.87 152.24H352.57V147.33H374.87V152.24Z" fill="white"/>
<path d="M283.79 111.05V109.72C283.79 102.51 277.92 96.6401 270.71 96.6401C263.32 96.6901 257.29 102.59 256.99 109.91H256.96V144.3H283.79V111.05ZM265.28 143.17H258.1V135.99H265.28V143.17ZM265.28 134.86H258.1V127.68H265.28V134.86ZM265.28 126.54H258.1V119.36H265.28V126.54ZM265.28 118.23H258.1V111.05H265.28V118.23ZM274.35 143.17H266.41V135.99H274.35V143.17ZM274.35 134.86H266.41V127.68H274.35V134.86ZM274.35 126.54H266.41V119.36H274.35V126.54ZM274.35 118.23H266.41V111.05H274.35V118.23ZM282.66 143.17H275.48V135.99H282.66V143.17ZM282.66 134.86H275.48V127.68H282.66V134.86ZM282.66 126.54H275.48V119.36H282.66V126.54ZM282.66 118.23H275.48V111.05H282.66V118.23ZM282.66 109.92H258.11C258.41 103.22 263.95 97.8301 270.72 97.7801C277.31 97.7801 282.66 103.14 282.66 109.72V109.91V109.92Z" fill="white"/>
<path d="M105.95 96.6499C98.56 96.6999 92.53 102.6 92.23 109.92H92.2V144.31H119.03V109.73C119.03 102.52 113.16 96.6499 105.95 96.6499ZM100.52 143.17H93.34V135.99H100.52V143.17ZM100.52 134.86H93.34V127.68H100.52V134.86ZM100.52 126.54H93.34V119.36H100.52V126.54ZM100.52 118.23H93.34V111.05H100.52V118.23ZM109.59 143.17H101.65V135.99H109.59V143.17ZM109.59 134.86H101.65V127.68H109.59V134.86ZM109.59 126.54H101.65V119.36H109.59V126.54ZM109.59 118.23H101.65V111.05H109.59V118.23ZM117.9 143.17H110.72V135.99H117.9V143.17ZM117.9 134.86H110.72V127.68H117.9V134.86ZM117.9 126.54H110.72V119.36H117.9V126.54ZM117.9 118.23H110.72V111.05H117.9V118.23ZM117.9 109.92H93.35C93.65 103.22 99.19 97.8299 105.96 97.7799C112.55 97.7799 117.9 103.14 117.9 109.72V109.91V109.92Z" fill="white"/>
</g>
<defs>
<clipPath id="clip0_62_189">
<rect width="376" height="363.4" fill="white"/>
</clipPath>
</defs>
</svg>
