<svg width="65" height="257" viewBox="0 0 65 257" fill="none" xmlns="http://www.w3.org/2000/svg">
<path d="M64.14 79.4101C64.14 89.9901 55.53 98.6001 44.95 98.6001H0V88.9801H44.95C50.23 88.9801 54.52 84.6901 54.52 79.4101H64.14Z" fill="black"/>
<path d="M17.5312 206.004C15.0378 203.958 11.3579 204.321 9.31202 206.815C7.2661 209.308 7.62886 212.988 10.1223 215.034C12.6157 217.08 16.2955 216.717 18.3414 214.224C20.3873 211.73 20.0246 208.05 17.5312 206.004Z" fill="black"/>
<path d="M63.23 7.28006C63.23 3.25943 59.9707 6.10352e-05 55.95 6.10352e-05C51.9294 6.10352e-05 48.67 3.25943 48.67 7.28006C48.67 11.3007 51.9294 14.5601 55.95 14.5601C59.9707 14.5601 63.23 11.3007 63.23 7.28006Z" fill="black"/>
<path d="M26.48 205.7V215.32H63.41V205.7H26.48Z" fill="black"/>
<path d="M49.65 228.87C52.55 230.52 54.52 233.63 54.52 237.2C54.52 242.48 50.23 246.77 44.95 246.77C39.67 246.77 35.38 242.48 35.38 237.2C35.38 233.72 37.25 230.67 40.04 228.99V218.65C31.83 220.83 25.76 228.32 25.76 237.2C25.75 247.79 34.36 256.4 44.95 256.4C55.54 256.4 64.14 247.79 64.14 237.21C64.14 228.25 57.97 220.7 49.65 218.6V228.88V228.87Z" fill="black"/>
<path d="M35.96 180.43L27.39 176.04C26.35 178.23 25.76 180.68 25.76 183.26C25.76 185.84 26.35 188.32 27.4 190.51H26.48V200.13H63.22V190.51H42.61V190.49C38.62 190.49 35.38 187.24 35.38 183.26C35.38 182.25 35.59 181.3 35.96 180.43Z" fill="black"/>
<path d="M35.96 14.7302L27.39 10.3402C26.35 12.5302 25.76 14.9802 25.76 17.5602C25.76 20.1402 26.35 22.6202 27.4 24.8102H26.48V34.4302H63.22V24.8102H42.61V24.7902C38.62 24.7902 35.38 21.5402 35.38 17.5602C35.38 16.5502 35.59 15.6002 35.96 14.7302Z" fill="black"/>
<path d="M26.26 49.4802H28.1C26.47 52.3002 25.53 55.5702 25.53 59.0502C25.53 69.6302 34.14 78.2402 44.72 78.2402C55.3 78.2402 63.91 69.6302 63.91 59.0502C63.91 55.5702 62.97 52.3002 61.34 49.4802H63.18V39.8602H26.26V49.4802ZM54.29 59.0502C54.29 64.3302 50 68.6202 44.72 68.6202C39.44 68.6202 35.15 64.3302 35.15 59.0502C35.15 53.7702 39.44 49.4802 44.72 49.4802C50 49.4802 54.29 53.7702 54.29 59.0502Z" fill="black"/>
<path d="M49.65 149.67C52.55 151.32 54.52 154.43 54.52 158C54.52 163.28 50.23 167.57 44.95 167.57C39.67 167.57 35.38 163.28 35.38 158C35.38 154.52 37.25 151.47 40.04 149.79V139.45C31.83 141.63 25.76 149.12 25.76 158C25.76 168.58 34.37 177.19 44.95 177.19C55.53 177.19 64.14 168.58 64.14 158C64.14 149.04 57.97 141.49 49.65 139.39V149.67Z" fill="black"/>
<path d="M64.04 120.39C64.04 129.07 56.98 136.12 48.31 136.12H26.49V126.5H48.31C51.68 126.5 54.42 123.76 54.42 120.39C54.42 117.02 51.68 114.28 48.31 114.28H26.49V104.66H48.31C56.99 104.66 64.04 111.72 64.04 120.39Z" fill="black"/>
</svg>
