<svg width="38" height="38" viewBox="0 0 38 38" fill="none" xmlns="http://www.w3.org/2000/svg">
<path d="M6.00005 0.799988C3.13192 0.799988 0.800049 3.13186 0.800049 5.99999V32C0.800049 34.8681 3.13192 37.2 6.00005 37.2H13.9788V25.3537H9.6888V19H13.9788V16.2619C13.9788 9.18499 17.18 5.90249 24.135 5.90249C25.4513 5.90249 27.7263 6.16249 28.6607 6.42249V12.175C28.1732 12.1262 27.32 12.0937 26.2557 12.0937C22.8432 12.0937 21.5269 13.3856 21.5269 16.7412V19H28.3194L27.1494 25.3537H21.5188V37.2H32C34.8682 37.2 37.2 34.8681 37.2 32V5.99999C37.2 3.13186 34.8682 0.799988 32 0.799988H6.00005Z" fill="black"/>
</svg>
