<svg width="52" height="52" viewBox="0 0 52 52" fill="none" xmlns="http://www.w3.org/2000/svg">
<path d="M26.0244 16.6562C20.865 16.64 16.6725 20.8162 16.6563 25.9756C16.64 31.135 20.8163 35.3275 25.9757 35.3437C31.135 35.36 35.3275 31.1837 35.3438 26.0244C35.36 20.865 31.1838 16.6725 26.0244 16.6562ZM25.9757 19.9387C29.3232 19.9225 32.045 22.6281 32.0613 25.9756C32.0775 29.3231 29.3719 32.045 26.0244 32.0612C22.6769 32.0775 19.955 29.3719 19.9388 26.0244C19.9225 22.6769 22.6282 19.955 25.9757 19.9387ZM33.5644 16.2744C33.5644 15.0719 34.5394 14.0969 35.7419 14.0969C36.9444 14.0969 37.9194 15.0719 37.9194 16.2744C37.9194 17.4769 36.9444 18.4519 35.7419 18.4519C34.5394 18.4519 33.5644 17.4769 33.5644 16.2744ZM44.1025 18.4844C43.9644 15.5675 43.2982 12.9837 41.1613 10.855C39.0325 8.72624 36.4488 8.05999 33.5319 7.91374C30.5257 7.74311 21.515 7.74311 18.5088 7.91374C15.6 8.05186 13.0163 8.71811 10.8794 10.8469C8.74252 12.9756 8.0844 15.5594 7.93815 18.4762C7.76752 21.4825 7.76752 30.4931 7.93815 33.4994C8.07627 36.4162 8.74252 39 10.8794 41.1287C13.0163 43.2575 15.5919 43.9237 18.5088 44.07C21.515 44.2406 30.5257 44.2406 33.5319 44.07C36.4488 43.9319 39.0325 43.2656 41.1613 41.1287C43.29 39 43.9563 36.4162 44.1025 33.4994C44.2732 30.4931 44.2732 21.4906 44.1025 18.4844ZM40.2188 36.725C39.585 38.3175 38.3582 39.5444 36.7575 40.1862C34.3607 41.1369 28.6731 40.9175 26.0244 40.9175C23.3756 40.9175 17.68 41.1287 15.2913 40.1862C13.6988 39.5525 12.4719 38.3256 11.83 36.725C10.8794 34.3281 11.0988 28.6406 11.0988 25.9919C11.0988 23.3431 10.8875 17.6475 11.83 15.2587C12.4638 13.6662 13.6906 12.4394 15.2913 11.7975C17.6881 10.8469 23.3756 11.0662 26.0244 11.0662C28.6731 11.0662 34.3688 10.855 36.7575 11.7975C38.35 12.4312 39.5769 13.6581 40.2188 15.2587C41.1694 17.6556 40.95 23.3431 40.95 25.9919C40.95 28.6406 41.1694 34.3362 40.2188 36.725Z" fill="black"/>
</svg>
