<svg width="755" height="563" viewBox="0 0 755 563" fill="none" xmlns="http://www.w3.org/2000/svg">
<mask id="mask0_575_4297" style="mask-type:alpha" maskUnits="userSpaceOnUse" x="0" y="0" width="755" height="563">
<rect width="755" height="563" fill="#D9D9D9"/>
</mask>
<g mask="url(#mask0_575_4297)">
<path d="M12.25 -9.75H-29V31.5H12.25V-9.75Z" stroke="#E5E5E5" stroke-width="0.5" stroke-miterlimit="10"/>
<path d="M53.5 -9.75H12.25V31.5H53.5V-9.75Z" stroke="#E5E5E5" stroke-width="0.5" stroke-miterlimit="10"/>
<path d="M94.75 -9.75H53.5V31.5H94.75V-9.75Z" stroke="#E5E5E5" stroke-width="0.5" stroke-miterlimit="10"/>
<path d="M136 -9.75H94.75V31.5H136V-9.75Z" stroke="#E5E5E5" stroke-width="0.5" stroke-miterlimit="10"/>
<path d="M177.25 -9.75H136V31.5H177.25V-9.75Z" stroke="#E5E5E5" stroke-width="0.5" stroke-miterlimit="10"/>
<path d="M218.5 -9.75H177.25V31.5H218.5V-9.75Z" stroke="#E5E5E5" stroke-width="0.5" stroke-miterlimit="10"/>
<path d="M259.75 -9.75H218.5V31.5H259.75V-9.75Z" stroke="#E5E5E5" stroke-width="0.5" stroke-miterlimit="10"/>
<path d="M301 -9.75H259.75V31.5H301V-9.75Z" stroke="#E5E5E5" stroke-width="0.5" stroke-miterlimit="10"/>
<path d="M342.25 -9.75H301V31.5H342.25V-9.75Z" stroke="#E5E5E5" stroke-width="0.5" stroke-miterlimit="10"/>
<path d="M383.5 -9.75H342.25V31.5H383.5V-9.75Z" stroke="#E5E5E5" stroke-width="0.5" stroke-miterlimit="10"/>
<path d="M424.75 -9.75H383.5V31.5H424.75V-9.75Z" stroke="#E5E5E5" stroke-width="0.5" stroke-miterlimit="10"/>
<path d="M466 -9.75H424.75V31.5H466V-9.75Z" stroke="#E5E5E5" stroke-width="0.5" stroke-miterlimit="10"/>
<path d="M507.25 -9.75H466V31.5H507.25V-9.75Z" stroke="#E5E5E5" stroke-width="0.5" stroke-miterlimit="10"/>
<path d="M548.5 -9.75H507.25V31.5H548.5V-9.75Z" stroke="#E5E5E5" stroke-width="0.5" stroke-miterlimit="10"/>
<path d="M589.75 -9.75H548.5V31.5H589.75V-9.75Z" stroke="#E5E5E5" stroke-width="0.5" stroke-miterlimit="10"/>
<path d="M631 -9.75H589.75V31.5H631V-9.75Z" stroke="#E5E5E5" stroke-width="0.5" stroke-miterlimit="10"/>
<path d="M672.25 -9.75H631V31.5H672.25V-9.75Z" stroke="#E5E5E5" stroke-width="0.5" stroke-miterlimit="10"/>
<path d="M713.5 -9.75H672.25V31.5H713.5V-9.75Z" stroke="#E5E5E5" stroke-width="0.5" stroke-miterlimit="10"/>
<path d="M754.75 -9.75H713.5V31.5H754.75V-9.75Z" stroke="#E5E5E5" stroke-width="0.5" stroke-miterlimit="10"/>
<path d="M796 -9.75H754.75V31.5H796V-9.75Z" stroke="#E5E5E5" stroke-width="0.5" stroke-miterlimit="10"/>
<path d="M12.25 31.5H-29V72.75H12.25V31.5Z" stroke="#E5E5E5" stroke-width="0.5" stroke-miterlimit="10"/>
<path d="M53.5 31.5H12.25V72.75H53.5V31.5Z" stroke="#E5E5E5" stroke-width="0.5" stroke-miterlimit="10"/>
<path d="M94.75 31.5H53.5V72.75H94.75V31.5Z" stroke="#E5E5E5" stroke-width="0.5" stroke-miterlimit="10"/>
<path d="M136 31.5H94.75V72.75H136V31.5Z" stroke="#E5E5E5" stroke-width="0.5" stroke-miterlimit="10"/>
<path d="M177.25 31.5H136V72.75H177.25V31.5Z" stroke="#E5E5E5" stroke-width="0.5" stroke-miterlimit="10"/>
<path d="M218.5 31.5H177.25V72.75H218.5V31.5Z" stroke="#E5E5E5" stroke-width="0.5" stroke-miterlimit="10"/>
<path d="M259.75 31.5H218.5V72.75H259.75V31.5Z" stroke="#E5E5E5" stroke-width="0.5" stroke-miterlimit="10"/>
<path d="M301 31.5H259.75V72.75H301V31.5Z" stroke="#E5E5E5" stroke-width="0.5" stroke-miterlimit="10"/>
<path d="M342.25 31.5H301V72.75H342.25V31.5Z" stroke="#E5E5E5" stroke-width="0.5" stroke-miterlimit="10"/>
<path d="M383.5 31.5H342.25V72.75H383.5V31.5Z" stroke="#E5E5E5" stroke-width="0.5" stroke-miterlimit="10"/>
<path d="M424.75 31.5H383.5V72.75H424.75V31.5Z" stroke="#E5E5E5" stroke-width="0.5" stroke-miterlimit="10"/>
<path d="M466 31.5H424.75V72.75H466V31.5Z" stroke="#E5E5E5" stroke-width="0.5" stroke-miterlimit="10"/>
<path d="M507.25 31.5H466V72.75H507.25V31.5Z" stroke="#E5E5E5" stroke-width="0.5" stroke-miterlimit="10"/>
<path d="M548.5 31.5H507.25V72.75H548.5V31.5Z" stroke="#E5E5E5" stroke-width="0.5" stroke-miterlimit="10"/>
<path d="M589.75 31.5H548.5V72.75H589.75V31.5Z" stroke="#E5E5E5" stroke-width="0.5" stroke-miterlimit="10"/>
<path d="M631 31.5H589.75V72.75H631V31.5Z" stroke="#E5E5E5" stroke-width="0.5" stroke-miterlimit="10"/>
<path d="M672.25 31.5H631V72.75H672.25V31.5Z" stroke="#E5E5E5" stroke-width="0.5" stroke-miterlimit="10"/>
<path d="M713.5 31.5H672.25V72.75H713.5V31.5Z" stroke="#E5E5E5" stroke-width="0.5" stroke-miterlimit="10"/>
<path d="M754.75 31.5H713.5V72.75H754.75V31.5Z" stroke="#E5E5E5" stroke-width="0.5" stroke-miterlimit="10"/>
<path d="M796 31.5H754.75V72.75H796V31.5Z" stroke="#E5E5E5" stroke-width="0.5" stroke-miterlimit="10"/>
<path d="M12.25 72.75H-29V114H12.25V72.75Z" stroke="#E5E5E5" stroke-width="0.5" stroke-miterlimit="10"/>
<path d="M53.5 72.75H12.25V114H53.5V72.75Z" stroke="#E5E5E5" stroke-width="0.5" stroke-miterlimit="10"/>
<path d="M94.75 72.75H53.5V114H94.75V72.75Z" stroke="#E5E5E5" stroke-width="0.5" stroke-miterlimit="10"/>
<path d="M136 72.75H94.75V114H136V72.75Z" stroke="#E5E5E5" stroke-width="0.5" stroke-miterlimit="10"/>
<path d="M177.25 72.75H136V114H177.25V72.75Z" stroke="#E5E5E5" stroke-width="0.5" stroke-miterlimit="10"/>
<path d="M218.5 72.75H177.25V114H218.5V72.75Z" stroke="#E5E5E5" stroke-width="0.5" stroke-miterlimit="10"/>
<path d="M259.75 72.75H218.5V114H259.75V72.75Z" stroke="#E5E5E5" stroke-width="0.5" stroke-miterlimit="10"/>
<path d="M301 72.75H259.75V114H301V72.75Z" stroke="#E5E5E5" stroke-width="0.5" stroke-miterlimit="10"/>
<path d="M342.25 72.75H301V114H342.25V72.75Z" stroke="#E5E5E5" stroke-width="0.5" stroke-miterlimit="10"/>
<path d="M383.5 72.75H342.25V114H383.5V72.75Z" stroke="#E5E5E5" stroke-width="0.5" stroke-miterlimit="10"/>
<path d="M424.75 72.75H383.5V114H424.75V72.75Z" stroke="#E5E5E5" stroke-width="0.5" stroke-miterlimit="10"/>
<path d="M466 72.75H424.75V114H466V72.75Z" stroke="#E5E5E5" stroke-width="0.5" stroke-miterlimit="10"/>
<path d="M507.25 72.75H466V114H507.25V72.75Z" stroke="#E5E5E5" stroke-width="0.5" stroke-miterlimit="10"/>
<path d="M548.5 72.75H507.25V114H548.5V72.75Z" stroke="#E5E5E5" stroke-width="0.5" stroke-miterlimit="10"/>
<path d="M589.75 72.75H548.5V114H589.75V72.75Z" stroke="#E5E5E5" stroke-width="0.5" stroke-miterlimit="10"/>
<path d="M631 72.75H589.75V114H631V72.75Z" stroke="#E5E5E5" stroke-width="0.5" stroke-miterlimit="10"/>
<path d="M672.25 72.75H631V114H672.25V72.75Z" stroke="#E5E5E5" stroke-width="0.5" stroke-miterlimit="10"/>
<path d="M713.5 72.75H672.25V114H713.5V72.75Z" stroke="#E5E5E5" stroke-width="0.5" stroke-miterlimit="10"/>
<path d="M754.75 72.75H713.5V114H754.75V72.75Z" stroke="#E5E5E5" stroke-width="0.5" stroke-miterlimit="10"/>
<path d="M796 72.75H754.75V114H796V72.75Z" stroke="#E5E5E5" stroke-width="0.5" stroke-miterlimit="10"/>
<path d="M12.25 114H-29V155.25H12.25V114Z" stroke="#E5E5E5" stroke-width="0.5" stroke-miterlimit="10"/>
<path d="M53.5 114H12.25V155.25H53.5V114Z" stroke="#E5E5E5" stroke-width="0.5" stroke-miterlimit="10"/>
<path d="M94.75 114H53.5V155.25H94.75V114Z" stroke="#E5E5E5" stroke-width="0.5" stroke-miterlimit="10"/>
<path d="M136 114H94.75V155.25H136V114Z" stroke="#E5E5E5" stroke-width="0.5" stroke-miterlimit="10"/>
<path d="M177.25 114H136V155.25H177.25V114Z" stroke="#E5E5E5" stroke-width="0.5" stroke-miterlimit="10"/>
<path d="M218.5 114H177.25V155.25H218.5V114Z" stroke="#E5E5E5" stroke-width="0.5" stroke-miterlimit="10"/>
<path d="M259.75 114H218.5V155.25H259.75V114Z" stroke="#E5E5E5" stroke-width="0.5" stroke-miterlimit="10"/>
<path d="M301 114H259.75V155.25H301V114Z" stroke="#E5E5E5" stroke-width="0.5" stroke-miterlimit="10"/>
<path d="M342.25 114H301V155.25H342.25V114Z" stroke="#E5E5E5" stroke-width="0.5" stroke-miterlimit="10"/>
<path d="M383.5 114H342.25V155.25H383.5V114Z" stroke="#E5E5E5" stroke-width="0.5" stroke-miterlimit="10"/>
<path d="M424.75 114H383.5V155.25H424.75V114Z" stroke="#E5E5E5" stroke-width="0.5" stroke-miterlimit="10"/>
<path d="M466 114H424.75V155.25H466V114Z" stroke="#E5E5E5" stroke-width="0.5" stroke-miterlimit="10"/>
<path d="M507.25 114H466V155.25H507.25V114Z" stroke="#E5E5E5" stroke-width="0.5" stroke-miterlimit="10"/>
<path d="M548.5 114H507.25V155.25H548.5V114Z" stroke="#E5E5E5" stroke-width="0.5" stroke-miterlimit="10"/>
<path d="M589.75 114H548.5V155.25H589.75V114Z" stroke="#E5E5E5" stroke-width="0.5" stroke-miterlimit="10"/>
<path d="M631 114H589.75V155.25H631V114Z" stroke="#E5E5E5" stroke-width="0.5" stroke-miterlimit="10"/>
<path d="M672.25 114H631V155.25H672.25V114Z" stroke="#E5E5E5" stroke-width="0.5" stroke-miterlimit="10"/>
<path d="M713.5 114H672.25V155.25H713.5V114Z" stroke="#E5E5E5" stroke-width="0.5" stroke-miterlimit="10"/>
<path d="M754.75 114H713.5V155.25H754.75V114Z" stroke="#E5E5E5" stroke-width="0.5" stroke-miterlimit="10"/>
<path d="M796 114H754.75V155.25H796V114Z" stroke="#E5E5E5" stroke-width="0.5" stroke-miterlimit="10"/>
<path d="M12.25 155.25H-29V196.5H12.25V155.25Z" stroke="#E5E5E5" stroke-width="0.5" stroke-miterlimit="10"/>
<path d="M53.5 155.25H12.25V196.5H53.5V155.25Z" stroke="#E5E5E5" stroke-width="0.5" stroke-miterlimit="10"/>
<path d="M94.75 155.25H53.5V196.5H94.75V155.25Z" stroke="#E5E5E5" stroke-width="0.5" stroke-miterlimit="10"/>
<path d="M136 155.25H94.75V196.5H136V155.25Z" stroke="#E5E5E5" stroke-width="0.5" stroke-miterlimit="10"/>
<path d="M177.25 155.25H136V196.5H177.25V155.25Z" stroke="#E5E5E5" stroke-width="0.5" stroke-miterlimit="10"/>
<path d="M218.5 155.25H177.25V196.5H218.5V155.25Z" stroke="#E5E5E5" stroke-width="0.5" stroke-miterlimit="10"/>
<path d="M259.75 155.25H218.5V196.5H259.75V155.25Z" stroke="#E5E5E5" stroke-width="0.5" stroke-miterlimit="10"/>
<path d="M301 155.25H259.75V196.5H301V155.25Z" stroke="#E5E5E5" stroke-width="0.5" stroke-miterlimit="10"/>
<path d="M342.25 155.25H301V196.5H342.25V155.25Z" stroke="#E5E5E5" stroke-width="0.5" stroke-miterlimit="10"/>
<path d="M383.5 155.25H342.25V196.5H383.5V155.25Z" stroke="#E5E5E5" stroke-width="0.5" stroke-miterlimit="10"/>
<path d="M424.75 155.25H383.5V196.5H424.75V155.25Z" stroke="#E5E5E5" stroke-width="0.5" stroke-miterlimit="10"/>
<path d="M466 155.25H424.75V196.5H466V155.25Z" stroke="#E5E5E5" stroke-width="0.5" stroke-miterlimit="10"/>
<path d="M507.25 155.25H466V196.5H507.25V155.25Z" stroke="#E5E5E5" stroke-width="0.5" stroke-miterlimit="10"/>
<path d="M548.5 155.25H507.25V196.5H548.5V155.25Z" stroke="#E5E5E5" stroke-width="0.5" stroke-miterlimit="10"/>
<path d="M589.75 155.25H548.5V196.5H589.75V155.25Z" stroke="#E5E5E5" stroke-width="0.5" stroke-miterlimit="10"/>
<path d="M631 155.25H589.75V196.5H631V155.25Z" stroke="#E5E5E5" stroke-width="0.5" stroke-miterlimit="10"/>
<path d="M672.25 155.25H631V196.5H672.25V155.25Z" stroke="#E5E5E5" stroke-width="0.5" stroke-miterlimit="10"/>
<path d="M713.5 155.25H672.25V196.5H713.5V155.25Z" stroke="#E5E5E5" stroke-width="0.5" stroke-miterlimit="10"/>
<path d="M754.75 155.25H713.5V196.5H754.75V155.25Z" stroke="#E5E5E5" stroke-width="0.5" stroke-miterlimit="10"/>
<path d="M796 155.25H754.75V196.5H796V155.25Z" stroke="#E5E5E5" stroke-width="0.5" stroke-miterlimit="10"/>
<path d="M12.25 196.5H-29V237.75H12.25V196.5Z" stroke="#E5E5E5" stroke-width="0.5" stroke-miterlimit="10"/>
<path d="M53.5 196.5H12.25V237.75H53.5V196.5Z" stroke="#E5E5E5" stroke-width="0.5" stroke-miterlimit="10"/>
<path d="M94.75 196.5H53.5V237.75H94.75V196.5Z" stroke="#E5E5E5" stroke-width="0.5" stroke-miterlimit="10"/>
<path d="M136 196.5H94.75V237.75H136V196.5Z" stroke="#E5E5E5" stroke-width="0.5" stroke-miterlimit="10"/>
<path d="M177.25 196.5H136V237.75H177.25V196.5Z" stroke="#E5E5E5" stroke-width="0.5" stroke-miterlimit="10"/>
<path d="M218.5 196.5H177.25V237.75H218.5V196.5Z" stroke="#E5E5E5" stroke-width="0.5" stroke-miterlimit="10"/>
<path d="M259.75 196.5H218.5V237.75H259.75V196.5Z" stroke="#E5E5E5" stroke-width="0.5" stroke-miterlimit="10"/>
<path d="M301 196.5H259.75V237.75H301V196.5Z" stroke="#E5E5E5" stroke-width="0.5" stroke-miterlimit="10"/>
<path d="M342.25 196.5H301V237.75H342.25V196.5Z" stroke="#E5E5E5" stroke-width="0.5" stroke-miterlimit="10"/>
<path d="M383.5 196.5H342.25V237.75H383.5V196.5Z" stroke="#E5E5E5" stroke-width="0.5" stroke-miterlimit="10"/>
<path d="M424.75 196.5H383.5V237.75H424.75V196.5Z" stroke="#E5E5E5" stroke-width="0.5" stroke-miterlimit="10"/>
<path d="M466 196.5H424.75V237.75H466V196.5Z" stroke="#E5E5E5" stroke-width="0.5" stroke-miterlimit="10"/>
<path d="M507.25 196.5H466V237.75H507.25V196.5Z" stroke="#E5E5E5" stroke-width="0.5" stroke-miterlimit="10"/>
<path d="M548.5 196.5H507.25V237.75H548.5V196.5Z" stroke="#E5E5E5" stroke-width="0.5" stroke-miterlimit="10"/>
<path d="M589.75 196.5H548.5V237.75H589.75V196.5Z" stroke="#E5E5E5" stroke-width="0.5" stroke-miterlimit="10"/>
<path d="M631 196.5H589.75V237.75H631V196.5Z" stroke="#E5E5E5" stroke-width="0.5" stroke-miterlimit="10"/>
<path d="M672.25 196.5H631V237.75H672.25V196.5Z" stroke="#E5E5E5" stroke-width="0.5" stroke-miterlimit="10"/>
<path d="M713.5 196.5H672.25V237.75H713.5V196.5Z" stroke="#E5E5E5" stroke-width="0.5" stroke-miterlimit="10"/>
<path d="M754.75 196.5H713.5V237.75H754.75V196.5Z" stroke="#E5E5E5" stroke-width="0.5" stroke-miterlimit="10"/>
<path d="M796 196.5H754.75V237.75H796V196.5Z" stroke="#E5E5E5" stroke-width="0.5" stroke-miterlimit="10"/>
<path d="M12.25 237.75H-29V279H12.25V237.75Z" stroke="#E5E5E5" stroke-width="0.5" stroke-miterlimit="10"/>
<path d="M53.5 237.75H12.25V279H53.5V237.75Z" stroke="#E5E5E5" stroke-width="0.5" stroke-miterlimit="10"/>
<path d="M94.75 237.75H53.5V279H94.75V237.75Z" stroke="#E5E5E5" stroke-width="0.5" stroke-miterlimit="10"/>
<path d="M136 237.75H94.75V279H136V237.75Z" stroke="#E5E5E5" stroke-width="0.5" stroke-miterlimit="10"/>
<path d="M177.25 237.75H136V279H177.25V237.75Z" stroke="#E5E5E5" stroke-width="0.5" stroke-miterlimit="10"/>
<path d="M218.5 237.75H177.25V279H218.5V237.75Z" stroke="#E5E5E5" stroke-width="0.5" stroke-miterlimit="10"/>
<path d="M259.75 237.75H218.5V279H259.75V237.75Z" stroke="#E5E5E5" stroke-width="0.5" stroke-miterlimit="10"/>
<path d="M301 237.75H259.75V279H301V237.75Z" stroke="#E5E5E5" stroke-width="0.5" stroke-miterlimit="10"/>
<path d="M342.25 237.75H301V279H342.25V237.75Z" stroke="#E5E5E5" stroke-width="0.5" stroke-miterlimit="10"/>
<path d="M383.5 237.75H342.25V279H383.5V237.75Z" stroke="#E5E5E5" stroke-width="0.5" stroke-miterlimit="10"/>
<path d="M424.75 237.75H383.5V279H424.75V237.75Z" stroke="#E5E5E5" stroke-width="0.5" stroke-miterlimit="10"/>
<path d="M466 237.75H424.75V279H466V237.75Z" stroke="#E5E5E5" stroke-width="0.5" stroke-miterlimit="10"/>
<path d="M507.25 237.75H466V279H507.25V237.75Z" stroke="#E5E5E5" stroke-width="0.5" stroke-miterlimit="10"/>
<path d="M548.5 237.75H507.25V279H548.5V237.75Z" stroke="#E5E5E5" stroke-width="0.5" stroke-miterlimit="10"/>
<path d="M589.75 237.75H548.5V279H589.75V237.75Z" stroke="#E5E5E5" stroke-width="0.5" stroke-miterlimit="10"/>
<path d="M631 237.75H589.75V279H631V237.75Z" stroke="#E5E5E5" stroke-width="0.5" stroke-miterlimit="10"/>
<path d="M672.25 237.75H631V279H672.25V237.75Z" stroke="#E5E5E5" stroke-width="0.5" stroke-miterlimit="10"/>
<path d="M713.5 237.75H672.25V279H713.5V237.75Z" stroke="#E5E5E5" stroke-width="0.5" stroke-miterlimit="10"/>
<path d="M754.75 237.75H713.5V279H754.75V237.75Z" stroke="#E5E5E5" stroke-width="0.5" stroke-miterlimit="10"/>
<path d="M796 237.75H754.75V279H796V237.75Z" stroke="#E5E5E5" stroke-width="0.5" stroke-miterlimit="10"/>
<path d="M12.25 279H-29V320.25H12.25V279Z" stroke="#E5E5E5" stroke-width="0.5" stroke-miterlimit="10"/>
<path d="M53.5 279H12.25V320.25H53.5V279Z" stroke="#E5E5E5" stroke-width="0.5" stroke-miterlimit="10"/>
<path d="M94.75 279H53.5V320.25H94.75V279Z" stroke="#E5E5E5" stroke-width="0.5" stroke-miterlimit="10"/>
<path d="M136 279H94.75V320.25H136V279Z" stroke="#E5E5E5" stroke-width="0.5" stroke-miterlimit="10"/>
<path d="M177.25 279H136V320.25H177.25V279Z" stroke="#E5E5E5" stroke-width="0.5" stroke-miterlimit="10"/>
<path d="M218.5 279H177.25V320.25H218.5V279Z" stroke="#E5E5E5" stroke-width="0.5" stroke-miterlimit="10"/>
<path d="M259.75 279H218.5V320.25H259.75V279Z" stroke="#E5E5E5" stroke-width="0.5" stroke-miterlimit="10"/>
<path d="M301 279H259.75V320.25H301V279Z" stroke="#E5E5E5" stroke-width="0.5" stroke-miterlimit="10"/>
<path d="M342.25 279H301V320.25H342.25V279Z" stroke="#E5E5E5" stroke-width="0.5" stroke-miterlimit="10"/>
<path d="M383.5 279H342.25V320.25H383.5V279Z" stroke="#E5E5E5" stroke-width="0.5" stroke-miterlimit="10"/>
<path d="M424.75 279H383.5V320.25H424.75V279Z" stroke="#E5E5E5" stroke-width="0.5" stroke-miterlimit="10"/>
<path d="M466 279H424.75V320.25H466V279Z" stroke="#E5E5E5" stroke-width="0.5" stroke-miterlimit="10"/>
<path d="M507.25 279H466V320.25H507.25V279Z" stroke="#E5E5E5" stroke-width="0.5" stroke-miterlimit="10"/>
<path d="M548.5 279H507.25V320.25H548.5V279Z" stroke="#E5E5E5" stroke-width="0.5" stroke-miterlimit="10"/>
<path d="M589.75 279H548.5V320.25H589.75V279Z" stroke="#E5E5E5" stroke-width="0.5" stroke-miterlimit="10"/>
<path d="M631 279H589.75V320.25H631V279Z" stroke="#E5E5E5" stroke-width="0.5" stroke-miterlimit="10"/>
<path d="M672.25 279H631V320.25H672.25V279Z" stroke="#E5E5E5" stroke-width="0.5" stroke-miterlimit="10"/>
<path d="M713.5 279H672.25V320.25H713.5V279Z" stroke="#E5E5E5" stroke-width="0.5" stroke-miterlimit="10"/>
<path d="M754.75 279H713.5V320.25H754.75V279Z" stroke="#E5E5E5" stroke-width="0.5" stroke-miterlimit="10"/>
<path d="M796 279H754.75V320.25H796V279Z" stroke="#E5E5E5" stroke-width="0.5" stroke-miterlimit="10"/>
<path d="M12.25 320.25H-29V361.5H12.25V320.25Z" stroke="#E5E5E5" stroke-width="0.5" stroke-miterlimit="10"/>
<path d="M53.5 320.25H12.25V361.5H53.5V320.25Z" stroke="#E5E5E5" stroke-width="0.5" stroke-miterlimit="10"/>
<path d="M94.75 320.25H53.5V361.5H94.75V320.25Z" stroke="#E5E5E5" stroke-width="0.5" stroke-miterlimit="10"/>
<path d="M136 320.25H94.75V361.5H136V320.25Z" stroke="#E5E5E5" stroke-width="0.5" stroke-miterlimit="10"/>
<path d="M177.25 320.25H136V361.5H177.25V320.25Z" stroke="#E5E5E5" stroke-width="0.5" stroke-miterlimit="10"/>
<path d="M218.5 320.25H177.25V361.5H218.5V320.25Z" stroke="#E5E5E5" stroke-width="0.5" stroke-miterlimit="10"/>
<path d="M259.75 320.25H218.5V361.5H259.75V320.25Z" stroke="#E5E5E5" stroke-width="0.5" stroke-miterlimit="10"/>
<path d="M301 320.25H259.75V361.5H301V320.25Z" stroke="#E5E5E5" stroke-width="0.5" stroke-miterlimit="10"/>
<path d="M342.25 320.25H301V361.5H342.25V320.25Z" stroke="#E5E5E5" stroke-width="0.5" stroke-miterlimit="10"/>
<path d="M383.5 320.25H342.25V361.5H383.5V320.25Z" stroke="#E5E5E5" stroke-width="0.5" stroke-miterlimit="10"/>
<path d="M424.75 320.25H383.5V361.5H424.75V320.25Z" stroke="#E5E5E5" stroke-width="0.5" stroke-miterlimit="10"/>
<path d="M466 320.25H424.75V361.5H466V320.25Z" stroke="#E5E5E5" stroke-width="0.5" stroke-miterlimit="10"/>
<path d="M507.25 320.25H466V361.5H507.25V320.25Z" stroke="#E5E5E5" stroke-width="0.5" stroke-miterlimit="10"/>
<path d="M548.5 320.25H507.25V361.5H548.5V320.25Z" stroke="#E5E5E5" stroke-width="0.5" stroke-miterlimit="10"/>
<path d="M589.75 320.25H548.5V361.5H589.75V320.25Z" stroke="#E5E5E5" stroke-width="0.5" stroke-miterlimit="10"/>
<path d="M631 320.25H589.75V361.5H631V320.25Z" stroke="#E5E5E5" stroke-width="0.5" stroke-miterlimit="10"/>
<path d="M672.25 320.25H631V361.5H672.25V320.25Z" stroke="#E5E5E5" stroke-width="0.5" stroke-miterlimit="10"/>
<path d="M713.5 320.25H672.25V361.5H713.5V320.25Z" stroke="#E5E5E5" stroke-width="0.5" stroke-miterlimit="10"/>
<path d="M754.75 320.25H713.5V361.5H754.75V320.25Z" stroke="#E5E5E5" stroke-width="0.5" stroke-miterlimit="10"/>
<path d="M796 320.25H754.75V361.5H796V320.25Z" stroke="#E5E5E5" stroke-width="0.5" stroke-miterlimit="10"/>
<path d="M12.25 361.5H-29V402.75H12.25V361.5Z" stroke="#E5E5E5" stroke-width="0.5" stroke-miterlimit="10"/>
<path d="M53.5 361.5H12.25V402.75H53.5V361.5Z" stroke="#E5E5E5" stroke-width="0.5" stroke-miterlimit="10"/>
<path d="M94.75 361.5H53.5V402.75H94.75V361.5Z" stroke="#E5E5E5" stroke-width="0.5" stroke-miterlimit="10"/>
<path d="M136 361.5H94.75V402.75H136V361.5Z" stroke="#E5E5E5" stroke-width="0.5" stroke-miterlimit="10"/>
<path d="M177.25 361.5H136V402.75H177.25V361.5Z" stroke="#E5E5E5" stroke-width="0.5" stroke-miterlimit="10"/>
<path d="M218.5 361.5H177.25V402.75H218.5V361.5Z" stroke="#E5E5E5" stroke-width="0.5" stroke-miterlimit="10"/>
<path d="M259.75 361.5H218.5V402.75H259.75V361.5Z" stroke="#E5E5E5" stroke-width="0.5" stroke-miterlimit="10"/>
<path d="M301 361.5H259.75V402.75H301V361.5Z" stroke="#E5E5E5" stroke-width="0.5" stroke-miterlimit="10"/>
<path d="M342.25 361.5H301V402.75H342.25V361.5Z" stroke="#E5E5E5" stroke-width="0.5" stroke-miterlimit="10"/>
<path d="M383.5 361.5H342.25V402.75H383.5V361.5Z" stroke="#E5E5E5" stroke-width="0.5" stroke-miterlimit="10"/>
<path d="M424.75 361.5H383.5V402.75H424.75V361.5Z" stroke="#E5E5E5" stroke-width="0.5" stroke-miterlimit="10"/>
<path d="M466 361.5H424.75V402.75H466V361.5Z" stroke="#E5E5E5" stroke-width="0.5" stroke-miterlimit="10"/>
<path d="M507.25 361.5H466V402.75H507.25V361.5Z" stroke="#E5E5E5" stroke-width="0.5" stroke-miterlimit="10"/>
<path d="M548.5 361.5H507.25V402.75H548.5V361.5Z" stroke="#E5E5E5" stroke-width="0.5" stroke-miterlimit="10"/>
<path d="M589.75 361.5H548.5V402.75H589.75V361.5Z" stroke="#E5E5E5" stroke-width="0.5" stroke-miterlimit="10"/>
<path d="M631 361.5H589.75V402.75H631V361.5Z" stroke="#E5E5E5" stroke-width="0.5" stroke-miterlimit="10"/>
<path d="M672.25 361.5H631V402.75H672.25V361.5Z" stroke="#E5E5E5" stroke-width="0.5" stroke-miterlimit="10"/>
<path d="M713.5 361.5H672.25V402.75H713.5V361.5Z" stroke="#E5E5E5" stroke-width="0.5" stroke-miterlimit="10"/>
<path d="M754.75 361.5H713.5V402.75H754.75V361.5Z" stroke="#E5E5E5" stroke-width="0.5" stroke-miterlimit="10"/>
<path d="M796 361.5H754.75V402.75H796V361.5Z" stroke="#E5E5E5" stroke-width="0.5" stroke-miterlimit="10"/>
<path d="M12.25 402.75H-29V444H12.25V402.75Z" stroke="#E5E5E5" stroke-width="0.5" stroke-miterlimit="10"/>
<path d="M53.5 402.75H12.25V444H53.5V402.75Z" stroke="#E5E5E5" stroke-width="0.5" stroke-miterlimit="10"/>
<path d="M94.75 402.75H53.5V444H94.75V402.75Z" stroke="#E5E5E5" stroke-width="0.5" stroke-miterlimit="10"/>
<path d="M136 402.75H94.75V444H136V402.75Z" stroke="#E5E5E5" stroke-width="0.5" stroke-miterlimit="10"/>
<path d="M177.25 402.75H136V444H177.25V402.75Z" stroke="#E5E5E5" stroke-width="0.5" stroke-miterlimit="10"/>
<path d="M218.5 402.75H177.25V444H218.5V402.75Z" stroke="#E5E5E5" stroke-width="0.5" stroke-miterlimit="10"/>
<path d="M259.75 402.75H218.5V444H259.75V402.75Z" stroke="#E5E5E5" stroke-width="0.5" stroke-miterlimit="10"/>
<path d="M301 402.75H259.75V444H301V402.75Z" stroke="#E5E5E5" stroke-width="0.5" stroke-miterlimit="10"/>
<path d="M342.25 402.75H301V444H342.25V402.75Z" stroke="#E5E5E5" stroke-width="0.5" stroke-miterlimit="10"/>
<path d="M383.5 402.75H342.25V444H383.5V402.75Z" stroke="#E5E5E5" stroke-width="0.5" stroke-miterlimit="10"/>
<path d="M424.75 402.75H383.5V444H424.75V402.75Z" stroke="#E5E5E5" stroke-width="0.5" stroke-miterlimit="10"/>
<path d="M466 402.75H424.75V444H466V402.75Z" stroke="#E5E5E5" stroke-width="0.5" stroke-miterlimit="10"/>
<path d="M507.25 402.75H466V444H507.25V402.75Z" stroke="#E5E5E5" stroke-width="0.5" stroke-miterlimit="10"/>
<path d="M548.5 402.75H507.25V444H548.5V402.75Z" stroke="#E5E5E5" stroke-width="0.5" stroke-miterlimit="10"/>
<path d="M589.75 402.75H548.5V444H589.75V402.75Z" stroke="#E5E5E5" stroke-width="0.5" stroke-miterlimit="10"/>
<path d="M631 402.75H589.75V444H631V402.75Z" stroke="#E5E5E5" stroke-width="0.5" stroke-miterlimit="10"/>
<path d="M672.25 402.75H631V444H672.25V402.75Z" stroke="#E5E5E5" stroke-width="0.5" stroke-miterlimit="10"/>
<path d="M713.5 402.75H672.25V444H713.5V402.75Z" stroke="#E5E5E5" stroke-width="0.5" stroke-miterlimit="10"/>
<path d="M754.75 402.75H713.5V444H754.75V402.75Z" stroke="#E5E5E5" stroke-width="0.5" stroke-miterlimit="10"/>
<path d="M796 402.75H754.75V444H796V402.75Z" stroke="#E5E5E5" stroke-width="0.5" stroke-miterlimit="10"/>
<path d="M12.25 444H-29V485.25H12.25V444Z" stroke="#E5E5E5" stroke-width="0.5" stroke-miterlimit="10"/>
<path d="M53.5 444H12.25V485.25H53.5V444Z" stroke="#E5E5E5" stroke-width="0.5" stroke-miterlimit="10"/>
<path d="M94.75 444H53.5V485.25H94.75V444Z" stroke="#E5E5E5" stroke-width="0.5" stroke-miterlimit="10"/>
<path d="M136 444H94.75V485.25H136V444Z" stroke="#E5E5E5" stroke-width="0.5" stroke-miterlimit="10"/>
<path d="M177.25 444H136V485.25H177.25V444Z" stroke="#E5E5E5" stroke-width="0.5" stroke-miterlimit="10"/>
<path d="M218.5 444H177.25V485.25H218.5V444Z" stroke="#E5E5E5" stroke-width="0.5" stroke-miterlimit="10"/>
<path d="M259.75 444H218.5V485.25H259.75V444Z" stroke="#E5E5E5" stroke-width="0.5" stroke-miterlimit="10"/>
<path d="M301 444H259.75V485.25H301V444Z" stroke="#E5E5E5" stroke-width="0.5" stroke-miterlimit="10"/>
<path d="M342.25 444H301V485.25H342.25V444Z" stroke="#E5E5E5" stroke-width="0.5" stroke-miterlimit="10"/>
<path d="M383.5 444H342.25V485.25H383.5V444Z" stroke="#E5E5E5" stroke-width="0.5" stroke-miterlimit="10"/>
<path d="M424.75 444H383.5V485.25H424.75V444Z" stroke="#E5E5E5" stroke-width="0.5" stroke-miterlimit="10"/>
<path d="M466 444H424.75V485.25H466V444Z" stroke="#E5E5E5" stroke-width="0.5" stroke-miterlimit="10"/>
<path d="M507.25 444H466V485.25H507.25V444Z" stroke="#E5E5E5" stroke-width="0.5" stroke-miterlimit="10"/>
<path d="M548.5 444H507.25V485.25H548.5V444Z" stroke="#E5E5E5" stroke-width="0.5" stroke-miterlimit="10"/>
<path d="M589.75 444H548.5V485.25H589.75V444Z" stroke="#E5E5E5" stroke-width="0.5" stroke-miterlimit="10"/>
<path d="M631 444H589.75V485.25H631V444Z" stroke="#E5E5E5" stroke-width="0.5" stroke-miterlimit="10"/>
<path d="M672.25 444H631V485.25H672.25V444Z" stroke="#E5E5E5" stroke-width="0.5" stroke-miterlimit="10"/>
<path d="M713.5 444H672.25V485.25H713.5V444Z" stroke="#E5E5E5" stroke-width="0.5" stroke-miterlimit="10"/>
<path d="M754.75 444H713.5V485.25H754.75V444Z" stroke="#E5E5E5" stroke-width="0.5" stroke-miterlimit="10"/>
<path d="M796 444H754.75V485.25H796V444Z" stroke="#E5E5E5" stroke-width="0.5" stroke-miterlimit="10"/>
<path d="M12.25 485.25H-29V526.5H12.25V485.25Z" stroke="#E5E5E5" stroke-width="0.5" stroke-miterlimit="10"/>
<path d="M53.5 485.25H12.25V526.5H53.5V485.25Z" stroke="#E5E5E5" stroke-width="0.5" stroke-miterlimit="10"/>
<path d="M94.75 485.25H53.5V526.5H94.75V485.25Z" stroke="#E5E5E5" stroke-width="0.5" stroke-miterlimit="10"/>
<path d="M136 485.25H94.75V526.5H136V485.25Z" stroke="#E5E5E5" stroke-width="0.5" stroke-miterlimit="10"/>
<path d="M177.25 485.25H136V526.5H177.25V485.25Z" stroke="#E5E5E5" stroke-width="0.5" stroke-miterlimit="10"/>
<path d="M218.5 485.25H177.25V526.5H218.5V485.25Z" stroke="#E5E5E5" stroke-width="0.5" stroke-miterlimit="10"/>
<path d="M259.75 485.25H218.5V526.5H259.75V485.25Z" stroke="#E5E5E5" stroke-width="0.5" stroke-miterlimit="10"/>
<path d="M301 485.25H259.75V526.5H301V485.25Z" stroke="#E5E5E5" stroke-width="0.5" stroke-miterlimit="10"/>
<path d="M342.25 485.25H301V526.5H342.25V485.25Z" stroke="#E5E5E5" stroke-width="0.5" stroke-miterlimit="10"/>
<path d="M383.5 485.25H342.25V526.5H383.5V485.25Z" stroke="#E5E5E5" stroke-width="0.5" stroke-miterlimit="10"/>
<path d="M424.75 485.25H383.5V526.5H424.75V485.25Z" stroke="#E5E5E5" stroke-width="0.5" stroke-miterlimit="10"/>
<path d="M466 485.25H424.75V526.5H466V485.25Z" stroke="#E5E5E5" stroke-width="0.5" stroke-miterlimit="10"/>
<path d="M507.25 485.25H466V526.5H507.25V485.25Z" stroke="#E5E5E5" stroke-width="0.5" stroke-miterlimit="10"/>
<path d="M548.5 485.25H507.25V526.5H548.5V485.25Z" stroke="#E5E5E5" stroke-width="0.5" stroke-miterlimit="10"/>
<path d="M589.75 485.25H548.5V526.5H589.75V485.25Z" stroke="#E5E5E5" stroke-width="0.5" stroke-miterlimit="10"/>
<path d="M631 485.25H589.75V526.5H631V485.25Z" stroke="#E5E5E5" stroke-width="0.5" stroke-miterlimit="10"/>
<path d="M672.25 485.25H631V526.5H672.25V485.25Z" stroke="#E5E5E5" stroke-width="0.5" stroke-miterlimit="10"/>
<path d="M713.5 485.25H672.25V526.5H713.5V485.25Z" stroke="#E5E5E5" stroke-width="0.5" stroke-miterlimit="10"/>
<path d="M754.75 485.25H713.5V526.5H754.75V485.25Z" stroke="#E5E5E5" stroke-width="0.5" stroke-miterlimit="10"/>
<path d="M796 485.25H754.75V526.5H796V485.25Z" stroke="#E5E5E5" stroke-width="0.5" stroke-miterlimit="10"/>
<path d="M12.25 526.5H-29V567.75H12.25V526.5Z" stroke="#E5E5E5" stroke-width="0.5" stroke-miterlimit="10"/>
<path d="M53.5 526.5H12.25V567.75H53.5V526.5Z" stroke="#E5E5E5" stroke-width="0.5" stroke-miterlimit="10"/>
<path d="M94.75 526.5H53.5V567.75H94.75V526.5Z" stroke="#E5E5E5" stroke-width="0.5" stroke-miterlimit="10"/>
<path d="M136 526.5H94.75V567.75H136V526.5Z" stroke="#E5E5E5" stroke-width="0.5" stroke-miterlimit="10"/>
<path d="M177.25 526.5H136V567.75H177.25V526.5Z" stroke="#E5E5E5" stroke-width="0.5" stroke-miterlimit="10"/>
<path d="M218.5 526.5H177.25V567.75H218.5V526.5Z" stroke="#E5E5E5" stroke-width="0.5" stroke-miterlimit="10"/>
<path d="M259.75 526.5H218.5V567.75H259.75V526.5Z" stroke="#E5E5E5" stroke-width="0.5" stroke-miterlimit="10"/>
<path d="M301 526.5H259.75V567.75H301V526.5Z" stroke="#E5E5E5" stroke-width="0.5" stroke-miterlimit="10"/>
<path d="M342.25 526.5H301V567.75H342.25V526.5Z" stroke="#E5E5E5" stroke-width="0.5" stroke-miterlimit="10"/>
<path d="M383.5 526.5H342.25V567.75H383.5V526.5Z" stroke="#E5E5E5" stroke-width="0.5" stroke-miterlimit="10"/>
<path d="M424.75 526.5H383.5V567.75H424.75V526.5Z" stroke="#E5E5E5" stroke-width="0.5" stroke-miterlimit="10"/>
<path d="M466 526.5H424.75V567.75H466V526.5Z" stroke="#E5E5E5" stroke-width="0.5" stroke-miterlimit="10"/>
<path d="M507.25 526.5H466V567.75H507.25V526.5Z" stroke="#E5E5E5" stroke-width="0.5" stroke-miterlimit="10"/>
<path d="M548.5 526.5H507.25V567.75H548.5V526.5Z" stroke="#E5E5E5" stroke-width="0.5" stroke-miterlimit="10"/>
<path d="M589.75 526.5H548.5V567.75H589.75V526.5Z" stroke="#E5E5E5" stroke-width="0.5" stroke-miterlimit="10"/>
<path d="M631 526.5H589.75V567.75H631V526.5Z" stroke="#E5E5E5" stroke-width="0.5" stroke-miterlimit="10"/>
<path d="M672.25 526.5H631V567.75H672.25V526.5Z" stroke="#E5E5E5" stroke-width="0.5" stroke-miterlimit="10"/>
<path d="M713.5 526.5H672.25V567.75H713.5V526.5Z" stroke="#E5E5E5" stroke-width="0.5" stroke-miterlimit="10"/>
<path d="M754.75 526.5H713.5V567.75H754.75V526.5Z" stroke="#E5E5E5" stroke-width="0.5" stroke-miterlimit="10"/>
<path d="M796 526.5H754.75V567.75H796V526.5Z" stroke="#E5E5E5" stroke-width="0.5" stroke-miterlimit="10"/>
<path d="M74.125 76.05C133.839 76.05 189.988 99.2985 232.211 141.539C274.435 183.762 297.7 239.911 297.7 299.625C297.7 359.339 274.451 415.488 232.211 457.711C189.988 499.935 133.839 523.2 74.125 523.2C14.4115 523.2 -41.738 499.951 -83.9615 457.711C-126.185 415.488 -149.45 359.339 -149.45 299.625C-149.45 239.911 -126.201 183.762 -83.9615 141.539C-41.738 99.315 14.4115 76.05 74.125 76.05ZM74.125 72.75C-51.176 72.75 -152.75 174.324 -152.75 299.625C-152.75 424.926 -51.176 526.5 74.125 526.5C199.426 526.5 301 424.926 301 299.625C301 174.324 199.426 72.75 74.125 72.75Z" fill="#AFAFAF"/>
<path d="M404.125 76.05C463.839 76.05 519.988 99.2985 562.211 141.539C604.435 183.762 627.7 239.911 627.7 299.625C627.7 359.339 604.451 415.488 562.211 457.711C519.988 499.935 463.839 523.2 404.125 523.2C344.411 523.2 288.262 499.951 246.039 457.711C203.815 415.488 180.55 359.339 180.55 299.625C180.55 239.911 203.799 183.762 246.039 141.539C288.262 99.315 344.411 76.05 404.125 76.05ZM404.125 72.75C278.824 72.75 177.25 174.324 177.25 299.625C177.25 424.926 278.824 526.5 404.125 526.5C529.426 526.5 631 424.926 631 299.625C631 174.324 529.426 72.75 404.125 72.75Z" fill="#AFAFAF"/>
<path d="M692.875 76.05C752.589 76.05 808.738 99.2985 850.961 141.539C893.185 183.762 916.45 239.911 916.45 299.625C916.45 359.339 893.201 415.488 850.961 457.711C808.738 499.935 752.589 523.2 692.875 523.2C633.161 523.2 577.012 499.951 534.789 457.711C492.565 415.488 469.3 359.339 469.3 299.625C469.3 239.911 492.549 183.762 534.789 141.539C577.012 99.315 633.161 76.05 692.875 76.05ZM692.875 72.75C567.574 72.75 466 174.324 466 299.625C466 424.926 567.574 526.5 692.875 526.5C818.176 526.5 919.75 424.926 919.75 299.625C919.75 174.324 818.176 72.75 692.875 72.75Z" fill="#AFAFAF"/>
<path d="M391.09 72.75C523.75 72.75 630.604 178.02 630.604 307.793V526.5H547.691V307.793C547.691 222.488 478.606 151.702 391.09 151.702H342.266V526.5H259.354V72.75H391.09ZM391.09 67.8H254.404V531.45H347.216V156.652H391.09C431.878 156.652 470.092 172.492 498.703 201.252C527.099 229.797 542.741 267.632 542.741 307.793V531.45H635.554V307.793C635.554 243.641 610.16 183.366 564.059 138.073C517.942 92.748 456.512 67.8 391.09 67.8Z" fill="black"/>
<path d="M679.84 72.75C812.5 72.75 919.354 178.02 919.354 307.793V526.5H836.441V307.793C836.441 222.488 767.356 151.702 679.84 151.702H631.016V526.5H548.104V72.75H679.84ZM679.84 67.8H543.154V531.45H635.966V156.652H679.84C720.628 156.652 758.842 172.492 787.453 201.252C815.849 229.797 831.491 267.632 831.491 307.793V531.45H924.304V307.793C924.304 243.641 898.91 183.366 852.809 138.073C806.692 92.748 745.262 67.8 679.84 67.8Z" fill="black"/>
<path d="M218.104 72.75V526.5H86.3678C-46.2922 526.5 -153.146 421.23 -153.146 291.457V72.75H-70.2337V291.457C-70.2337 376.762 -1.14824 447.547 86.3678 447.547H135.191V72.75H218.104ZM223.054 67.8H130.241V442.597H86.3678C45.5798 442.597 7.36581 426.757 -21.2452 397.998C-49.6417 369.453 -65.2837 331.618 -65.2837 291.457V67.8H-158.096V291.457C-158.096 355.609 -132.703 415.884 -86.6017 461.176C-40.4842 506.502 20.9453 531.45 86.3678 531.45H223.054V67.8Z" fill="black"/>
<path d="M218.5 555.623V579.877" stroke="#AFAFAF" stroke-width="2" stroke-miterlimit="10"/>
<path d="M919.42 31.038H259.42" stroke="#AFAFAF" stroke-width="2" stroke-miterlimit="10"/>
<path d="M259.354 18.894V43.1325" stroke="#AFAFAF" stroke-width="2" stroke-miterlimit="10"/>
<path d="M571.002 1.19397V0.426924L573.882 -2.72649C574.22 -3.0958 574.499 -3.41683 574.717 -3.68955C574.936 -3.96512 575.098 -4.22364 575.203 -4.46512C575.311 -4.70944 575.365 -4.96512 575.365 -5.23217C575.365 -5.53898 575.291 -5.80461 575.144 -6.02904C574.999 -6.25347 574.8 -6.42677 574.547 -6.54893C574.294 -6.67109 574.01 -6.73217 573.695 -6.73217C573.36 -6.73217 573.067 -6.66256 572.817 -6.52336C572.57 -6.387 572.378 -6.19524 572.242 -5.94808C572.108 -5.70092 572.041 -5.41114 572.041 -5.07876H571.036C571.036 -5.59012 571.154 -6.03899 571.389 -6.42535C571.625 -6.81171 571.946 -7.11285 572.352 -7.32876C572.761 -7.54467 573.22 -7.65262 573.729 -7.65262C574.24 -7.65262 574.693 -7.54467 575.088 -7.32876C575.483 -7.11285 575.793 -6.82166 576.017 -6.45518C576.242 -6.0887 576.354 -5.68103 576.354 -5.23217C576.354 -4.91114 576.296 -4.59722 576.179 -4.29041C576.065 -3.98643 575.867 -3.64694 575.583 -3.27194C575.301 -2.89978 574.911 -2.44524 574.411 -1.9083L572.45 0.188288V0.25647H576.507V1.19397H571.002ZM579.034 -5.35149L580.602 -2.67535L582.171 -5.35149H583.33L581.216 -2.07876L583.33 1.19397H582.171L580.602 -1.3458L579.034 1.19397H577.875L579.955 -2.07876L577.875 -5.35149H579.034Z" fill="#AFAFAF"/>
</g>
</svg>
