<?xml version="1.0" encoding="UTF-8"?>
<svg id="Capa_2" data-name="Capa 2" xmlns="http://www.w3.org/2000/svg" xmlns:xlink="http://www.w3.org/1999/xlink" viewBox="0 0 732.64 111.9">
  <defs>
    <style>
      .cls-1 {
        fill: none;
      }

      .cls-2 {
        fill: #e0dacd;
      }

      .cls-3 {
        clip-path: url(#clippath-17);
      }

      .cls-4 {
        clip-path: url(#clippath-19);
      }

      .cls-5 {
        clip-path: url(#clippath-11);
      }

      .cls-6 {
        clip-path: url(#clippath-16);
      }

      .cls-7 {
        clip-path: url(#clippath-18);
      }

      .cls-8 {
        clip-path: url(#clippath-10);
      }

      .cls-9 {
        clip-path: url(#clippath-15);
      }

      .cls-10 {
        clip-path: url(#clippath-13);
      }

      .cls-11 {
        clip-path: url(#clippath-14);
      }

      .cls-12 {
        clip-path: url(#clippath-12);
      }

      .cls-13 {
        clip-path: url(#clippath-61);
      }

      .cls-14 {
        clip-path: url(#clippath-60);
      }

      .cls-15 {
        clip-path: url(#clippath-62);
      }

      .cls-16 {
        clip-path: url(#clippath-64);
      }

      .cls-17 {
        clip-path: url(#clippath-63);
      }

      .cls-18 {
        clip-path: url(#clippath-50);
      }

      .cls-19 {
        clip-path: url(#clippath-55);
      }

      .cls-20 {
        clip-path: url(#clippath-52);
      }

      .cls-21 {
        clip-path: url(#clippath-57);
      }

      .cls-22 {
        clip-path: url(#clippath-54);
      }

      .cls-23 {
        clip-path: url(#clippath-56);
      }

      .cls-24 {
        clip-path: url(#clippath-53);
      }

      .cls-25 {
        clip-path: url(#clippath-51);
      }

      .cls-26 {
        clip-path: url(#clippath-58);
      }

      .cls-27 {
        clip-path: url(#clippath-59);
      }

      .cls-28 {
        clip-path: url(#clippath-31);
      }

      .cls-29 {
        clip-path: url(#clippath-32);
      }

      .cls-30 {
        clip-path: url(#clippath-33);
      }

      .cls-31 {
        clip-path: url(#clippath-34);
      }

      .cls-32 {
        clip-path: url(#clippath-35);
      }

      .cls-33 {
        clip-path: url(#clippath-39);
      }

      .cls-34 {
        clip-path: url(#clippath-30);
      }

      .cls-35 {
        clip-path: url(#clippath-36);
      }

      .cls-36 {
        clip-path: url(#clippath-37);
      }

      .cls-37 {
        clip-path: url(#clippath-38);
      }

      .cls-38 {
        clip-path: url(#clippath-27);
      }

      .cls-39 {
        clip-path: url(#clippath-29);
      }

      .cls-40 {
        clip-path: url(#clippath-26);
      }

      .cls-41 {
        clip-path: url(#clippath-28);
      }

      .cls-42 {
        clip-path: url(#clippath-20);
      }

      .cls-43 {
        clip-path: url(#clippath-21);
      }

      .cls-44 {
        clip-path: url(#clippath-22);
      }

      .cls-45 {
        clip-path: url(#clippath-23);
      }

      .cls-46 {
        clip-path: url(#clippath-24);
      }

      .cls-47 {
        clip-path: url(#clippath-25);
      }

      .cls-48 {
        clip-path: url(#clippath-41);
      }

      .cls-49 {
        clip-path: url(#clippath-42);
      }

      .cls-50 {
        clip-path: url(#clippath-43);
      }

      .cls-51 {
        clip-path: url(#clippath-44);
      }

      .cls-52 {
        clip-path: url(#clippath-45);
      }

      .cls-53 {
        clip-path: url(#clippath-49);
      }

      .cls-54 {
        clip-path: url(#clippath-40);
      }

      .cls-55 {
        clip-path: url(#clippath-46);
      }

      .cls-56 {
        clip-path: url(#clippath-47);
      }

      .cls-57 {
        clip-path: url(#clippath-48);
      }

      .cls-58 {
        clip-path: url(#clippath-1);
      }

      .cls-59 {
        clip-path: url(#clippath-3);
      }

      .cls-60 {
        clip-path: url(#clippath-4);
      }

      .cls-61 {
        clip-path: url(#clippath-2);
      }

      .cls-62 {
        clip-path: url(#clippath-7);
      }

      .cls-63 {
        clip-path: url(#clippath-6);
      }

      .cls-64 {
        clip-path: url(#clippath-9);
      }

      .cls-65 {
        clip-path: url(#clippath-8);
      }

      .cls-66 {
        clip-path: url(#clippath-5);
      }

      .cls-67 {
        clip-path: url(#clippath);
      }
    </style>
    <clipPath id="clippath">
      <rect class="cls-1" width="118.32" height="92.92"/>
    </clipPath>
    <clipPath id="clippath-1">
      <path class="cls-1" d="M101.75,45.76c-3.69-14.62-6.05-29.43-5.9-44.56,0-.35-.03-.7-.06-1.2H22.4c-.03.5-.07.85-.06,1.2.15,15.13-2.21,29.94-5.9,44.56C12.32,62.02,6.7,77.69,0,92.91h9.92c2.61-6.16,5.07-12.39,7.33-18.71,6.25-17.51,11.08-35.37,13.15-53.9.46-4.12.75-8.26,1.12-12.35h7.27c-1.68,30.12-9.6,58.09-21.13,84.96h9.88c3.08-7.45,5.9-15.03,8.41-22.72,5.6-17.2,9.72-34.73,11.24-52.8.27-3.14.46-6.28.69-9.52h6.9c-.26,14.78-2.54,29.09-5.8,43.24-3.29,14.24-7.74,28.11-13.17,41.68-.02.04-.03.08-.05.12h9.65c5.46-13.9,10.36-29.46,13.7-44.17,3.33,14.72,8.25,30.29,13.7,44.17h9.65s-.03-.08-.05-.12c-5.43-13.57-9.89-27.44-13.17-41.68-3.27-14.16-5.54-28.47-5.8-43.24h6.9c.23,3.24.42,6.38.69,9.52,1.53,18.07,5.65,35.59,11.24,52.8,2.51,7.71,5.33,15.28,8.41,22.72h9.88c-11.53-26.87-19.45-54.84-21.12-84.96h7.27c.37,4.09.66,8.23,1.12,12.35,2.07,18.53,6.89,36.4,13.15,53.9,2.26,6.32,4.71,12.55,7.33,18.71h9.92c-6.7-15.23-12.32-30.89-16.44-47.16Z"/>
    </clipPath>
    <clipPath id="clippath-2">
      <rect class="cls-1" x="-.53" y="-.1" width="120" height="93.33"/>
    </clipPath>
    <clipPath id="clippath-3">
      <rect class="cls-1" y="0" width="118.32" height="92.92"/>
    </clipPath>
    <clipPath id="clippath-4">
      <path class="cls-1" d="M101.75,45.76c-3.69-14.62-6.05-29.43-5.9-44.56,0-.35-.03-.7-.06-1.2H22.4c-.03.5-.07.85-.06,1.2.15,15.13-2.21,29.94-5.9,44.56C12.32,62.02,6.7,77.69,0,92.91h9.92c2.61-6.16,5.07-12.39,7.33-18.71,6.25-17.51,11.08-35.37,13.15-53.9.46-4.12.75-8.26,1.12-12.35h7.27c-1.68,30.12-9.6,58.09-21.13,84.96h9.88c3.08-7.45,5.9-15.03,8.41-22.72,5.6-17.2,9.72-34.73,11.24-52.8.27-3.14.46-6.28.69-9.52h6.9c-.26,14.78-2.54,29.09-5.8,43.24-3.29,14.24-7.74,28.11-13.17,41.68-.02.04-.03.08-.05.12h9.65c5.46-13.9,10.36-29.46,13.7-44.17,3.33,14.72,8.25,30.29,13.7,44.17h9.65s-.03-.08-.05-.12c-5.43-13.57-9.89-27.44-13.17-41.68-3.27-14.16-5.54-28.47-5.8-43.24h6.9c.23,3.24.42,6.38.69,9.52,1.53,18.07,5.65,35.59,11.24,52.8,2.51,7.71,5.33,15.28,8.41,22.72h9.88c-11.53-26.87-19.45-54.84-21.12-84.96h7.27c.37,4.09.66,8.23,1.12,12.35,2.07,18.53,6.89,36.4,13.15,53.9,2.26,6.32,4.71,12.55,7.33,18.71h9.92c-6.7-15.23-12.32-30.89-16.44-47.16Z"/>
    </clipPath>
    <clipPath id="clippath-5">
      <rect class="cls-1" x="152.93" y="11.94" width="75.32" height="81.74"/>
    </clipPath>
    <clipPath id="clippath-6">
      <path class="cls-1" d="M228,75.49c-2.49,4.95-6.86,9.21-13.08,12.76-6.22,3.54-13.01,5.31-20.35,5.31-11.56,0-21.35-3.98-29.36-11.93-8.01-7.95-12-17.66-12-29.16s4-20.71,12-28.53c8-7.82,17.76-11.73,29.25-11.73,6.68,0,12.88,1.49,18.59,4.46,5.71,2.98,10.49,7.2,14.35,12.66l-8.54,6c-2.94-4-6.54-7.1-10.82-9.3-4.29-2.21-8.84-3.31-13.68-3.31-8.36,0-15.46,2.86-21.29,8.59-5.82,5.72-8.73,12.78-8.73,21.15s2.93,15.84,8.79,21.73c5.86,5.89,13.03,8.85,21.55,8.85h.28c4.38-.04,8.65-1.06,12.83-3.06,4.18-1.99,7.42-4.58,9.69-7.74v-14.93h-19.39l2.81-10.35h27.1v28.53Z"/>
    </clipPath>
    <clipPath id="clippath-7">
      <rect class="cls-1" x="152.81" y="11.9" width="76" height="82.67"/>
    </clipPath>
    <clipPath id="clippath-8">
      <rect class="cls-1" x="153.18" y="12.04" width="75.07" height="81.64"/>
    </clipPath>
    <clipPath id="clippath-9">
      <path class="cls-1" d="M228,75.49c-2.49,4.95-6.86,9.21-13.08,12.76-6.22,3.54-13.01,5.31-20.35,5.31-11.56,0-21.35-3.98-29.36-11.93-8.01-7.95-12-17.66-12-29.16s4-20.71,12-28.53c8-7.82,17.76-11.73,29.25-11.73,6.68,0,12.88,1.49,18.59,4.46,5.71,2.98,10.49,7.2,14.35,12.66l-8.54,6c-2.94-4-6.54-7.1-10.82-9.3-4.29-2.21-8.84-3.31-13.68-3.31-8.36,0-15.46,2.86-21.29,8.59-5.82,5.72-8.73,12.78-8.73,21.15s2.93,15.84,8.79,21.73c5.86,5.89,13.03,8.85,21.55,8.85h.28c4.38-.04,8.65-1.06,12.83-3.06,4.18-1.99,7.42-4.58,9.69-7.74v-14.93h-19.39l2.81-10.35h27.1v28.53Z"/>
    </clipPath>
    <clipPath id="clippath-10">
      <rect class="cls-1" x="235.95" y="45.74" width="25.25" height="46.15"/>
    </clipPath>
    <clipPath id="clippath-11">
      <path class="cls-1" d="M260.82,56.56h-.94c-4.67,0-8.08.96-10.24,2.86-2.17,1.91-3.24,4.94-3.24,9.08v23.35h-10.08v-45.21h10.08v6.66c1.88-2.9,3.69-4.88,5.48-5.92,1.79-1.05,4.48-1.57,8.12-1.57h.83v10.74Z"/>
    </clipPath>
    <clipPath id="clippath-12">
      <rect class="cls-1" x="235.47" y="45.23" width="26.67" height="46.67"/>
    </clipPath>
    <clipPath id="clippath-13">
      <rect class="cls-1" x="236.26" y="45.74" width="24.6" height="46.15"/>
    </clipPath>
    <clipPath id="clippath-14">
      <path class="cls-1" d="M260.82,56.56h-.94c-4.67,0-8.08.96-10.24,2.86-2.17,1.91-3.24,4.94-3.24,9.08v23.35h-10.08v-45.21h10.08v6.66c1.88-2.9,3.69-4.88,5.48-5.92,1.79-1.05,4.48-1.57,8.12-1.57h.83v10.74Z"/>
    </clipPath>
    <clipPath id="clippath-15">
      <rect class="cls-1" x="267.62" y="46.17" width="39.85" height="46.65"/>
    </clipPath>
    <clipPath id="clippath-16">
      <path class="cls-1" d="M307.47,91.85h-9.92v-5.72c-1.69,2.32-3.47,3.97-5.37,4.98-1.9,1.01-4.19,1.52-6.91,1.52s-4.93-.41-6.97-1.24c-2.04-.83-3.93-2.09-5.7-3.82-1.8-1.8-3.07-3.86-3.82-6.19-.75-2.33-1.13-5.76-1.13-10.28v-24.57h10.08v25c0,2.65.15,4.52.44,5.62.29,1.1.84,2.09,1.65,2.97,1.03,1.03,2.18,1.77,3.45,2.22,1.27.46,2.72.69,4.38.69,1.91,0,3.53-.31,4.84-.94,1.32-.63,2.41-1.58,3.24-2.87.7-1.03,1.16-2.07,1.38-3.11s.37-2.94.44-5.7v-23.89h9.92v45.32Z"/>
    </clipPath>
    <clipPath id="clippath-17">
      <rect class="cls-1" x="267.47" y="45.23" width="40" height="48"/>
    </clipPath>
    <clipPath id="clippath-18">
      <rect class="cls-1" x="267.62" y="46.23" width="39.85" height="46.59"/>
    </clipPath>
    <clipPath id="clippath-19">
      <path class="cls-1" d="M307.47,91.85h-9.92v-5.72c-1.69,2.32-3.47,3.97-5.37,4.98-1.9,1.01-4.19,1.52-6.91,1.52s-4.93-.41-6.97-1.24c-2.04-.83-3.93-2.09-5.7-3.82-1.8-1.8-3.07-3.86-3.82-6.19-.75-2.33-1.13-5.76-1.13-10.28v-24.57h10.08v25c0,2.65.15,4.52.44,5.62.29,1.1.84,2.09,1.65,2.97,1.03,1.03,2.18,1.77,3.45,2.22,1.27.46,2.72.69,4.38.69,1.91,0,3.53-.31,4.84-.94,1.32-.63,2.41-1.58,3.24-2.87.7-1.03,1.16-2.07,1.38-3.11s.37-2.94.44-5.7v-23.89h9.92v45.32Z"/>
    </clipPath>
    <clipPath id="clippath-20">
      <rect class="cls-1" x="315.98" y="45.32" width="47.08" height="66.58"/>
    </clipPath>
    <clipPath id="clippath-21">
      <path class="cls-1" d="M352.85,69.39c0-4.27-1.24-7.73-3.74-10.41-2.49-2.67-5.73-4.02-9.69-4.02-2.97,0-5.66.88-8.07,2.65-2.41,1.77-4.16,4.11-5.26,7.05v9.37c.81,2.97,2.43,5.39,4.87,7.27,2.44,1.88,5.22,2.81,8.35,2.81,3.92,0,7.17-1.39,9.71-4.15,2.55-2.77,3.82-6.29,3.82-10.55M362.65,69.4c0,6.72-2.17,12.41-6.5,17.07-4.33,4.67-9.57,7-15.7,7-2.82,0-5.49-.6-7.98-1.79-2.5-1.19-4.54-2.85-6.11-4.98v25.11h-9.96V46.53h9.7v5.4c1.83-2.12,3.89-3.71,6.17-4.77,2.28-1.05,4.84-1.57,7.71-1.57,6.39,0,11.77,2.3,16.14,6.88,4.38,4.58,6.55,10.22,6.55,16.91h0Z"/>
    </clipPath>
    <clipPath id="clippath-22">
      <rect class="cls-1" x="315.47" y="45.23" width="48" height="66.67"/>
    </clipPath>
    <clipPath id="clippath-23">
      <rect class="cls-1" x="316.14" y="45.59" width="46.65" height="66.3"/>
    </clipPath>
    <clipPath id="clippath-24">
      <path class="cls-1" d="M352.85,69.39c0-4.27-1.24-7.73-3.74-10.41-2.49-2.67-5.73-4.02-9.69-4.02-2.97,0-5.66.88-8.07,2.65-2.41,1.77-4.16,4.11-5.26,7.05v9.37c.81,2.97,2.43,5.39,4.87,7.27,2.44,1.88,5.22,2.81,8.35,2.81,3.92,0,7.17-1.39,9.71-4.15,2.55-2.77,3.82-6.29,3.82-10.55M362.65,69.4c0,6.72-2.17,12.41-6.5,17.07-4.33,4.67-9.57,7-15.7,7-2.82,0-5.49-.6-7.98-1.79-2.5-1.19-4.54-2.85-6.11-4.98v25.11h-9.96V46.53h9.7v5.4c1.83-2.12,3.89-3.71,6.17-4.77,2.28-1.05,4.84-1.57,7.71-1.57,6.39,0,11.77,2.3,16.14,6.88,4.38,4.58,6.55,10.22,6.55,16.91h0Z"/>
    </clipPath>
    <clipPath id="clippath-25">
      <rect class="cls-1" x="366.48" y="44.46" width="47.51" height="48.79"/>
    </clipPath>
    <clipPath id="clippath-26">
      <path class="cls-1" d="M404.02,68.84c0-4.3-1.3-7.85-3.89-10.66-2.58-2.81-5.88-4.21-9.89-4.21s-7.24,1.41-9.82,4.21c-2.59,2.81-3.89,6.36-3.89,10.66s1.3,7.92,3.89,10.76c2.58,2.85,5.86,4.28,9.82,4.28s7.3-1.43,9.89-4.28c2.59-2.84,3.89-6.43,3.89-10.76M413.71,68.84c0,6.79-2.27,12.56-6.8,17.29s-10.08,7.11-16.66,7.11-12.08-2.36-16.64-7.11c-4.55-4.74-6.83-10.51-6.83-17.29s2.27-12.53,6.8-17.21c4.54-4.67,10.09-7.02,16.66-7.02s12.12,2.33,16.66,7.02c4.53,4.69,6.8,10.42,6.8,17.21h0Z"/>
    </clipPath>
    <clipPath id="clippath-27">
      <rect class="cls-1" x="366.14" y="43.9" width="48" height="50.67"/>
    </clipPath>
    <clipPath id="clippath-28">
      <rect class="cls-1" x="366.62" y="44.46" width="47.29" height="48.79"/>
    </clipPath>
    <clipPath id="clippath-29">
      <path class="cls-1" d="M404.02,68.84c0-4.3-1.3-7.85-3.89-10.66-2.58-2.81-5.88-4.21-9.89-4.21s-7.24,1.41-9.82,4.21c-2.59,2.81-3.89,6.36-3.89,10.66s1.3,7.92,3.89,10.76c2.58,2.85,5.86,4.28,9.82,4.28s7.3-1.43,9.89-4.28c2.59-2.84,3.89-6.43,3.89-10.76M413.71,68.84c0,6.79-2.27,12.56-6.8,17.29s-10.08,7.11-16.66,7.11-12.08-2.36-16.64-7.11c-4.55-4.74-6.83-10.51-6.83-17.29s2.27-12.53,6.8-17.21c4.54-4.67,10.09-7.02,16.66-7.02s12.12,2.33,16.66,7.02c4.53,4.69,6.8,10.42,6.8,17.21h0Z"/>
    </clipPath>
    <clipPath id="clippath-30">
      <rect class="cls-1" x="715.47" y="13.43" width="17.17" height="16.86"/>
    </clipPath>
    <clipPath id="clippath-31">
      <path class="cls-1" d="M725.87,19.79c0-.47-.16-.81-.47-1.03-.31-.22-.81-.33-1.47-.33h-1.08v2.68h1.16c.67,0,1.15-.11,1.44-.31.29-.2.44-.54.44-1M727.74,26.7h-1.67l-3.23-4.58v4.58h-1.52v-9.6h2.52c1.13,0,1.98.23,2.55.68.57.45.86,1.12.86,2.01,0,.7-.24,1.27-.72,1.73-.48.46-1.1.7-1.86.72l3.07,4.46ZM730.6,21.81c0-1.98-.62-3.59-1.85-4.84-1.22-1.24-2.82-1.86-4.78-1.86s-3.54.63-4.75,1.88c-1.22,1.25-1.84,2.88-1.84,4.88s.61,3.61,1.84,4.89c1.22,1.28,2.78,1.92,4.68,1.92,1.99,0,3.61-.62,4.85-1.9,1.24-1.27,1.86-2.92,1.86-4.94M732.3,21.86c0,2.43-.77,4.43-2.32,6.02-1.55,1.59-3.49,2.38-5.85,2.38-2.48,0-4.51-.78-6.06-2.34-1.56-1.57-2.34-3.6-2.34-6.08s.78-4.41,2.32-5.97c1.55-1.56,3.51-2.36,5.9-2.36s4.43.78,5.98,2.35c1.56,1.57,2.33,3.56,2.33,6h.03Z"/>
    </clipPath>
    <clipPath id="clippath-32">
      <rect class="cls-1" x="715.47" y="13.23" width="17.33" height="17.33"/>
    </clipPath>
    <clipPath id="clippath-33">
      <rect class="cls-1" x="715.54" y="13.43" width="16.94" height="16.86"/>
    </clipPath>
    <clipPath id="clippath-34">
      <path class="cls-1" d="M725.87,19.79c0-.47-.16-.81-.47-1.03-.31-.22-.81-.33-1.47-.33h-1.08v2.68h1.16c.67,0,1.15-.11,1.44-.31.29-.2.44-.54.44-1M727.74,26.7h-1.67l-3.23-4.58v4.58h-1.52v-9.6h2.52c1.13,0,1.98.23,2.55.68.57.45.86,1.12.86,2.01,0,.7-.24,1.27-.72,1.73-.48.46-1.1.7-1.86.72l3.07,4.46ZM730.6,21.81c0-1.98-.62-3.59-1.85-4.84-1.22-1.24-2.82-1.86-4.78-1.86s-3.54.63-4.75,1.88c-1.22,1.25-1.84,2.88-1.84,4.88s.61,3.61,1.84,4.89c1.22,1.28,2.78,1.92,4.68,1.92,1.99,0,3.61-.62,4.85-1.9,1.24-1.27,1.86-2.92,1.86-4.94M732.3,21.86c0,2.43-.77,4.43-2.32,6.02-1.55,1.59-3.49,2.38-5.85,2.38-2.48,0-4.51-.78-6.06-2.34-1.56-1.57-2.34-3.6-2.34-6.08s.78-4.41,2.32-5.97c1.55-1.56,3.51-2.36,5.9-2.36s4.43.78,5.98,2.35c1.56,1.57,2.33,3.56,2.33,6h.03Z"/>
    </clipPath>
    <clipPath id="clippath-35">
      <rect class="cls-1" x="435.07" y="13.43" width="61.74" height="78.47"/>
    </clipPath>
    <clipPath id="clippath-36">
      <path class="cls-1" d="M474.42,56.56l-8.49-27.65-8.43,27.65h16.92ZM496.77,91.85h-11.07l-8.26-25.16h-22.96l-8.26,25.16h-11.07l25.72-78.15h10.18l25.72,78.15Z"/>
    </clipPath>
    <clipPath id="clippath-37">
      <rect class="cls-1" x="434.14" y="13.23" width="62.67" height="78.67"/>
    </clipPath>
    <clipPath id="clippath-38">
      <rect class="cls-1" x="435.07" y="13.64" width="61.74" height="78.26"/>
    </clipPath>
    <clipPath id="clippath-39">
      <path class="cls-1" d="M474.42,56.56l-8.49-27.65-8.43,27.65h16.92ZM496.77,91.85h-11.07l-8.26-25.16h-22.96l-8.26,25.16h-11.07l25.72-78.15h10.18l25.72,78.15Z"/>
    </clipPath>
    <clipPath id="clippath-40">
      <rect class="cls-1" x="498.31" y="45.4" width="46.72" height="48.13"/>
    </clipPath>
    <clipPath id="clippath-41">
      <path class="cls-1" d="M535.1,75.17v-11.18c-1.07-2.65-2.76-4.75-5.06-6.33s-5.03-2.37-8.16-2.37c-3.93,0-7.12,1.32-9.59,3.97-2.46,2.65-3.69,6.06-3.69,10.24s1.24,7.86,3.71,10.6c2.48,2.73,5.66,4.1,9.56,4.1,2.97,0,5.66-.83,8.07-2.48s4.12-3.83,5.15-6.55M544.9,91.86h-9.81v-5.39l-1.05,1.05c-3.79,3.96-8.36,5.95-13.71,5.95-6.2,0-11.4-2.29-15.56-6.86-4.17-4.57-6.26-10.28-6.26-17.1s2.19-12.52,6.55-17.07c4.36-4.55,9.85-6.83,16.47-6.83,2.6,0,4.94.49,7.02,1.46,2.08.97,4.26,2.59,6.53,4.87v-5.29h9.81v45.21Z"/>
    </clipPath>
    <clipPath id="clippath-42">
      <rect class="cls-1" x="498.14" y="45.23" width="48" height="49.33"/>
    </clipPath>
    <clipPath id="clippath-43">
      <rect class="cls-1" x="498.31" y="45.59" width="46.61" height="47.93"/>
    </clipPath>
    <clipPath id="clippath-44">
      <path class="cls-1" d="M535.1,75.17v-11.18c-1.07-2.65-2.76-4.75-5.06-6.33-2.31-1.58-5.03-2.37-8.16-2.37-3.93,0-7.12,1.32-9.59,3.97-2.46,2.65-3.69,6.06-3.69,10.24s1.24,7.86,3.71,10.6c2.48,2.73,5.66,4.1,9.56,4.1,2.97,0,5.66-.83,8.07-2.48s4.12-3.83,5.15-6.55M544.9,91.86h-9.81v-5.39l-1.05,1.05c-3.79,3.96-8.36,5.95-13.71,5.95-6.2,0-11.4-2.29-15.56-6.86-4.17-4.57-6.26-10.28-6.26-17.1s2.19-12.52,6.55-17.07c4.36-4.55,9.85-6.83,16.47-6.83,2.6,0,4.94.49,7.02,1.46,2.08.97,4.26,2.59,6.53,4.87v-5.29h9.81v45.21Z"/>
    </clipPath>
    <clipPath id="clippath-45">
      <rect class="cls-1" x="553.46" y="45.75" width="24.94" height="46.15"/>
    </clipPath>
    <clipPath id="clippath-46">
      <path class="cls-1" d="M578.17,56.56h-.94c-4.67,0-8.08.96-10.24,2.86-2.17,1.91-3.25,4.94-3.25,9.09v23.34h-10.07v-45.21h10.07v6.66c1.88-2.9,3.7-4.88,5.48-5.92,1.79-1.05,4.48-1.57,8.13-1.57h.83v10.74Z"/>
    </clipPath>
    <clipPath id="clippath-47">
      <rect class="cls-1" x="552.81" y="45.23" width="26.67" height="46.67"/>
    </clipPath>
    <clipPath id="clippath-48">
      <rect class="cls-1" x="553.54" y="45.75" width="24.86" height="46.15"/>
    </clipPath>
    <clipPath id="clippath-49">
      <path class="cls-1" d="M578.17,56.56h-.94c-4.67,0-8.08.96-10.24,2.86-2.17,1.91-3.25,4.94-3.25,9.09v23.34h-10.07v-45.21h10.07v6.66c1.88-2.9,3.7-4.88,5.48-5.92,1.79-1.05,4.48-1.57,8.13-1.57h.83v10.74Z"/>
    </clipPath>
    <clipPath id="clippath-50">
      <rect class="cls-1" x="585.43" y="13.43" width="40.05" height="78.47"/>
    </clipPath>
    <clipPath id="clippath-51">
      <path class="cls-1" d="M625.15,91.85h-10.03v-24.12c0-2.86-.08-4.77-.25-5.73-.17-.96-.45-1.8-.86-2.54-.7-1.18-1.72-2.09-3.08-2.73-1.36-.64-2.94-.96-4.73-.96-1.65,0-3.19.29-4.62.88-1.43.59-2.63,1.42-3.58,2.48-.96,1.09-1.59,2.3-1.9,3.6-.31,1.3-.47,3.22-.47,5.75v23.36h-10.03V13.71h10.03v38.32c1.73-2.05,3.64-3.58,5.73-4.59,2.1-1.01,4.43-1.52,7-1.52s5.11.53,7.41,1.6c2.3,1.07,4.19,2.57,5.7,4.51,1.36,1.73,2.32,3.61,2.87,5.65.55,2.04.83,4.82.83,8.34l-.02,25.83Z"/>
    </clipPath>
    <clipPath id="clippath-52">
      <rect class="cls-1" x="584.81" y="13.23" width="41.33" height="78.67"/>
    </clipPath>
    <clipPath id="clippath-53">
      <rect class="cls-1" x="585.49" y="13.64" width="39.94" height="78.26"/>
    </clipPath>
    <clipPath id="clippath-54">
      <path class="cls-1" d="M625.15,91.85h-10.03v-24.12c0-2.86-.08-4.77-.25-5.73-.17-.96-.45-1.8-.86-2.54-.7-1.18-1.72-2.09-3.08-2.73-1.36-.64-2.94-.96-4.73-.96-1.65,0-3.19.29-4.62.88-1.43.59-2.63,1.42-3.58,2.48-.96,1.09-1.59,2.3-1.9,3.6-.31,1.3-.47,3.22-.47,5.75v23.36h-10.03V13.71h10.03v38.32c1.73-2.05,3.64-3.58,5.73-4.59,2.1-1.01,4.43-1.52,7-1.52s5.11.53,7.41,1.6c2.3,1.07,4.19,2.57,5.7,4.51,1.36,1.73,2.32,3.61,2.87,5.65.55,2.04.83,4.82.83,8.34l-.02,25.83Z"/>
    </clipPath>
    <clipPath id="clippath-55">
      <rect class="cls-1" x="633.21" y="46.45" width="40.4" height="46.38"/>
    </clipPath>
    <clipPath id="clippath-56">
      <path class="cls-1" d="M673.34,91.85h-9.92v-5.72c-1.69,2.31-3.47,3.97-5.37,4.98-1.9,1.01-4.19,1.52-6.91,1.52s-4.93-.41-6.97-1.24c-2.04-.83-3.93-2.1-5.7-3.82-1.8-1.8-3.07-3.86-3.82-6.19s-1.12-5.75-1.12-10.28v-24.57h10.07v25.01c0,2.65.15,4.51.44,5.62.29,1.11.84,2.1,1.65,2.97,1.03,1.03,2.18,1.77,3.44,2.23,1.27.46,2.72.69,4.39.69,1.91,0,3.52-.31,4.84-.94,1.32-.63,2.41-1.58,3.24-2.86.7-1.03,1.16-2.07,1.38-3.11.22-1.05.37-2.95.44-5.7v-23.9h9.91v45.32Z"/>
    </clipPath>
    <clipPath id="clippath-57">
      <rect class="cls-1" x="632.81" y="45.23" width="41.33" height="48"/>
    </clipPath>
    <clipPath id="clippath-58">
      <rect class="cls-1" x="633.43" y="46.45" width="39.94" height="46.38"/>
    </clipPath>
    <clipPath id="clippath-59">
      <path class="cls-1" d="M673.34,91.85h-9.92v-5.72c-1.69,2.31-3.47,3.97-5.37,4.98-1.9,1.01-4.19,1.52-6.91,1.52s-4.93-.41-6.97-1.24c-2.04-.83-3.93-2.1-5.7-3.82-1.8-1.8-3.07-3.86-3.82-6.19s-1.12-5.75-1.12-10.28v-24.57h10.07v25.01c0,2.65.15,4.51.44,5.62.29,1.11.84,2.1,1.65,2.97,1.03,1.03,2.18,1.77,3.44,2.23,1.27.46,2.72.69,4.39.69,1.91,0,3.52-.31,4.84-.94,1.32-.63,2.41-1.58,3.24-2.86.7-1.03,1.16-2.07,1.38-3.11.22-1.05.37-2.95.44-5.7v-23.9h9.91v45.32Z"/>
    </clipPath>
    <clipPath id="clippath-60">
      <rect class="cls-1" x="679.59" y="44.69" width="33.22" height="48.48"/>
    </clipPath>
    <clipPath id="clippath-61">
      <path class="cls-1" d="M712.72,80.23c0,3.79-1.4,6.88-4.18,9.28-2.79,2.4-6.54,3.6-11.23,3.6-3.3,0-6.34-.46-9.11-1.38-2.78-.92-5.42-2.34-7.96-4.29l-.44-.33,5.06-7.77c2.17,1.54,4.34,2.76,6.52,3.64,2.18.88,4.16,1.32,5.92,1.32,1.91,0,3.33-.31,4.24-.94.92-.63,1.38-1.6,1.38-2.92,0-1.25-.5-2.38-1.49-3.39-.99-1.01-3.11-2.51-6.39-4.48l-.55-.33c-3.96-2.39-6.47-3.94-7.52-4.66s-2.05-1.57-3.01-2.56c-.92-.99-1.62-2.14-2.09-3.45-.47-1.31-.72-2.72-.72-4.26,0-3.83,1.3-6.88,3.92-9.17s6.11-3.45,10.52-3.45c2.17,0,4.36.27,6.58.8,2.22.53,4.4,1.32,6.53,2.33l1.97,1.05-4.02,8.32-.33-.22c-1.73-1.14-3.41-1.98-5.05-2.54-1.64-.55-3.35-.83-5.15-.83-1.65,0-2.91.28-3.78.83-.86.55-1.3,1.36-1.3,2.43,0,.81.35,1.56,1.05,2.26.7.7,2.49,1.91,5.4,3.63l1.32.77.55.27c8.89,5.21,13.33,10.68,13.33,16.42h.02Z"/>
    </clipPath>
    <clipPath id="clippath-62">
      <rect class="cls-1" x="679.47" y="43.9" width="33.33" height="49.33"/>
    </clipPath>
    <clipPath id="clippath-63">
      <rect class="cls-1" x="679.76" y="44.69" width="33.05" height="48.48"/>
    </clipPath>
    <clipPath id="clippath-64">
      <path class="cls-1" d="M712.72,80.23c0,3.79-1.4,6.88-4.18,9.28-2.79,2.4-6.54,3.6-11.23,3.6-3.3,0-6.34-.46-9.11-1.38-2.78-.92-5.42-2.34-7.96-4.29l-.44-.33,5.06-7.77c2.17,1.54,4.34,2.76,6.52,3.64,2.18.88,4.16,1.32,5.92,1.32,1.91,0,3.33-.31,4.24-.94.92-.63,1.38-1.6,1.38-2.92,0-1.25-.5-2.38-1.49-3.39-.99-1.01-3.11-2.51-6.39-4.48l-.55-.33c-3.96-2.39-6.47-3.94-7.52-4.66s-2.05-1.57-3.01-2.56c-.92-.99-1.62-2.14-2.09-3.45-.47-1.31-.72-2.72-.72-4.26,0-3.83,1.3-6.88,3.92-9.17,2.61-2.29,6.11-3.45,10.52-3.45,2.17,0,4.36.27,6.58.8,2.22.53,4.4,1.32,6.53,2.33l1.97,1.05-4.02,8.32-.33-.22c-1.73-1.14-3.41-1.98-5.05-2.54-1.64-.55-3.35-.83-5.15-.83-1.65,0-2.91.28-3.78.83-.86.55-1.3,1.36-1.3,2.43,0,.81.35,1.56,1.05,2.26.7.7,2.49,1.91,5.4,3.63l1.32.77.55.27c8.89,5.21,13.33,10.68,13.33,16.42h.02Z"/>
    </clipPath>
  </defs>
  <g id="Capa_1-2" data-name="Capa 1">
    <g>
      <g class="cls-67">
        <g class="cls-58">
          <g class="cls-61">
            <g class="cls-59">
              <g class="cls-60">
                <path class="cls-2" d="M0,0h118.32v92.92H0V0Z"/>
              </g>
            </g>
          </g>
        </g>
      </g>
      <g class="cls-66">
        <g class="cls-63">
          <g class="cls-62">
            <g class="cls-65">
              <g class="cls-64">
                <rect class="cls-2" x="-641.86" y="-591.44" width="2016" height="1296"/>
              </g>
            </g>
          </g>
        </g>
      </g>
      <g class="cls-8">
        <g class="cls-5">
          <g class="cls-12">
            <g class="cls-10">
              <g class="cls-11">
                <rect class="cls-2" x="-641.86" y="-591.44" width="2016" height="1296"/>
              </g>
            </g>
          </g>
        </g>
      </g>
      <g class="cls-9">
        <g class="cls-6">
          <g class="cls-3">
            <g class="cls-7">
              <g class="cls-4">
                <rect class="cls-2" x="-641.86" y="-591.44" width="2016" height="1296"/>
              </g>
            </g>
          </g>
        </g>
      </g>
      <g class="cls-42">
        <g class="cls-43">
          <g class="cls-44">
            <g class="cls-45">
              <g class="cls-46">
                <rect class="cls-2" x="-641.86" y="-591.44" width="2016" height="1296"/>
              </g>
            </g>
          </g>
        </g>
      </g>
      <g class="cls-47">
        <g class="cls-40">
          <g class="cls-38">
            <g class="cls-41">
              <g class="cls-39">
                <rect class="cls-2" x="-641.86" y="-591.44" width="2016" height="1296"/>
              </g>
            </g>
          </g>
        </g>
      </g>
      <g class="cls-34">
        <g class="cls-28">
          <g class="cls-29">
            <g class="cls-30">
              <g class="cls-31">
                <rect class="cls-2" x="-641.86" y="-591.44" width="2016" height="1296"/>
              </g>
            </g>
          </g>
        </g>
      </g>
      <g class="cls-32">
        <g class="cls-35">
          <g class="cls-36">
            <g class="cls-37">
              <g class="cls-33">
                <rect class="cls-2" x="-641.86" y="-591.44" width="2016" height="1296"/>
              </g>
            </g>
          </g>
        </g>
      </g>
      <g class="cls-54">
        <g class="cls-48">
          <g class="cls-49">
            <g class="cls-50">
              <g class="cls-51">
                <rect class="cls-2" x="-641.86" y="-591.44" width="2016" height="1296"/>
              </g>
            </g>
          </g>
        </g>
      </g>
      <g class="cls-52">
        <g class="cls-55">
          <g class="cls-56">
            <g class="cls-57">
              <g class="cls-53">
                <rect class="cls-2" x="-641.86" y="-591.44" width="2016" height="1296"/>
              </g>
            </g>
          </g>
        </g>
      </g>
      <g class="cls-18">
        <g class="cls-25">
          <g class="cls-20">
            <g class="cls-24">
              <g class="cls-22">
                <rect class="cls-2" x="-641.86" y="-591.44" width="2016" height="1296"/>
              </g>
            </g>
          </g>
        </g>
      </g>
      <g class="cls-19">
        <g class="cls-23">
          <g class="cls-21">
            <g class="cls-26">
              <g class="cls-27">
                <rect class="cls-2" x="-641.86" y="-591.44" width="2016" height="1296"/>
              </g>
            </g>
          </g>
        </g>
      </g>
      <g class="cls-14">
        <g class="cls-13">
          <g class="cls-15">
            <g class="cls-17">
              <g class="cls-16">
                <rect class="cls-2" x="-641.86" y="-591.44" width="2016" height="1296"/>
              </g>
            </g>
          </g>
        </g>
      </g>
    </g>
  </g>
</svg>