<svg xmlns="http://www.w3.org/2000/svg" id="Capa_2" data-name="Capa 2" viewBox="0 0 444.07 106.49">
  <defs fill="#fafafaff">
    <style>
      .cls-1 {
        fill: #fafafa;
      }
    </style>
  </defs>
  <g id="_1_-_Portada" data-name="1 - Portada">
    <g>
      <path class="cls-1" d="M52.32.01c30.01-.61,54.37,23.37,54.37,53.44s-23.75,53.04-53.24,53.04C22.27,106.49-2.36,80.3.18,49.01,2.38,21.93,25.15.57,52.32.01ZM53.45,88.67c19.45,0,34.81-15.97,34.81-35.22,0-20.53-16.74-37.03-37.41-35.54-15.42,1.12-28.32,12.59-31.57,27.7-4.86,22.55,11.9,43.06,34.17,43.06Z" fill="#fafafaff"/>
      <path class="cls-1" d="M196.84,2.05v102.39h-29.28c-29.49,0-53.24-23.75-53.24-53.04V2.05h18.43v49.35c0,19.25,15.36,35.22,34.81,35.22h10.85V2.05h18.43Z" fill="#fafafaff"/>
      <path class="cls-1" d="M361.55,104.44V2.05h29.28c29.49,0,53.24,23.75,53.24,53.04v49.35h-18.43v-49.35c0-19.25-15.36-35.22-34.81-35.22h-10.85v84.57h-18.43Z" fill="#fafafaff"/>
      <g>
        <path class="cls-1" d="M208.56,104.44V2.05h29.28c29.49,0,53.24,23.75,53.24,53.04v49.35h-18.43v-49.35c0-19.25-15.36-35.22-34.81-35.22h-10.85v84.57h-18.43Z" fill="#fafafaff"/>
        <path class="cls-1" d="M208.56,104.44V2.05s88.03,0,88.03,0c29.49,0,53.24,23.75,53.24,53.04v49.35s-18.43,0-18.43,0v-49.35c0-19.25-15.36-35.22-34.81-35.22h-69.6s0,84.57,0,84.57h-18.43Z" fill="#fafafaff"/>
      </g>
      <path class="cls-1" d="M364.45,77.82v-19.01h76.71v19.01h-76.71Z" fill="#fafafaff"/>
    </g>
  </g>
</svg>