<?xml version="1.0" encoding="UTF-8"?>
<svg id="Capa_2" data-name="Capa 2" xmlns="http://www.w3.org/2000/svg" viewBox="0 0 1000 271.14">
  <g id="Layer_1" data-name="Layer 1">
    <g>
      <path d="M94.19,88.62v34.55l67.71.28c-1.67,21.18-22.57,36.78-47.93,36.78-32.05,0-55.18-23.69-55.18-56.57s22.29-55.73,52.95-55.73c19.78,0,37.62,10.87,42.63,25.64l54.06-10.31C199.24,26.47,159.12,0,112.02,0,47.1,0,0,41.8,0,103.66s47.1,104.78,112.02,104.78c68.55,0,113.42-49.04,106.17-119.82h-124Z"/>
      <path d="M295.4,56.01c-42.91,0-70.5,20.62-70.5,52.67h50.44c0-12.26,8.08-19.51,19.51-19.51,11.99,0,18.95,7.25,18.95,17.83v6.41l-25.08,3.07c-47.09,6.41-69.66,21.18-69.66,49.04,0,26.2,19.51,41.24,47.93,41.24,18.67,0,35.95-6.96,44.03-20.34h2.79v17h52.39v-94.47c0-32.32-28.15-52.94-70.78-52.94ZM313.79,149.64c0,14.77-10.87,25.64-26.47,25.64-11.42,0-18.11-5.85-18.11-14.77,0-8.36,6.13-14.21,21.46-16.16l23.13-3.34v8.64Z"/>
      <path d="M432.79,79.98h-3.07v-20.34h-51.83v143.79h52.11v-71.34c0-18.67,11.15-31.21,27.03-31.21,6.69,0,16.72,2.23,25.08,5.85v-46.26c-4.46-2.23-10.31-3.62-15.88-3.62-14.49,0-27.31,8.92-33.44,23.13Z"/>
      <path d="M559.86,56.01c-42.91,0-70.5,20.62-70.5,52.67h50.44c0-12.26,8.08-19.51,19.51-19.51s18.95,7.25,18.95,17.83v6.41l-25.08,3.07c-47.1,6.41-69.67,21.18-69.67,49.04,0,26.2,19.51,41.24,47.93,41.24,18.67,0,35.95-6.96,44.03-20.34h2.79v17h52.39v-94.47c0-32.32-28.15-52.94-70.78-52.94ZM578.25,149.64c0,14.77-10.87,25.64-26.47,25.64-11.43,0-18.11-5.85-18.11-14.77,0-8.36,6.13-14.21,21.46-16.16l23.13-3.34v8.64Z"/>
      <path d="M746.57,77.47h-2.79c-10.59-13.65-24.24-21.18-44.03-21.18-37.62,0-63.26,27.59-63.26,75.24,0,44.86,25.91,73.01,63.53,73.01,18.12,0,31.21-6.69,41.8-18.67h2.78v14.77c0,18.39-11.42,30.65-29.54,30.65-13.93,0-24.52-7.52-27.87-19.79l-50.16,6.97c5.3,34,35.39,52.67,80.53,52.67,48.77,0,79.14-25.08,79.14-68.55V59.63h-50.16v17.83ZM717.87,162.74c-17,0-28.98-13.1-28.98-31.21s11.98-31.77,28.98-31.77,28.98,13.38,28.98,31.77-12.26,31.21-28.98,31.21Z"/>
      <path d="M885.63,56.01c-47.65,0-81.09,29.26-81.09,74.96s32.88,76.07,80.53,76.07c36.78,0,66.32-16.44,73.57-43.47l-44.86-8.08c-4.46,9.2-13.38,15.6-25.92,15.6-15.61,0-26.2-9.75-29.54-25.36h105.06c.56-2.79.83-10.03.83-14.21,0-45.98-31.21-75.52-78.58-75.52ZM857.77,117.87c2.79-15.88,12.26-25.91,26.75-25.91s25.64,11.7,27.03,25.91h-53.78Z"/>
      <path d="M976.64,24.6c-13.57,0-23.24,9.67-23.24,22.85s9.67,22.96,23.24,22.96,23.36-9.5,23.36-22.96-9.67-22.85-23.36-22.85ZM976.7,67.24c-11.59,0-19.8-8.2-19.8-19.8s8.2-19.63,19.8-19.63,19.8,8.31,19.8,19.63-8.2,19.8-19.8,19.8Z"/>
      <path d="M988.57,41.79c0-4.98-3.9-8.6-9.11-8.6h-12.27v28.05h3.62v-11.2h4.36l8.54,11.2h4.64l-9.05-11.31h.17c5.2,0,9.11-3.39,9.11-8.14ZM978.96,47h-8.14v-10.63h8.14c3.34,0,6,2.15,6,5.37s-2.55,5.26-6,5.26Z"/>
    </g>
  </g>
</svg>