<?xml version="1.0" encoding="UTF-8"?>
<svg id="Capa_2" data-name="Capa 2" xmlns="http://www.w3.org/2000/svg" viewBox="0 0 156.98 13.46">
  <defs>
    <style>
      .cls-1 {
        fill: #fff;
      }
    </style>
  </defs>
  <g id="Capa_1-2" data-name="Capa 1">
    <g>
      <path class="cls-1" d="M0,13.35c.26-.64.5-1.24.76-1.84C2.28,7.92,3.81,4.33,5.33.74c.04-.08.07-.17.12-.25.17-.28.39-.46.75-.45,1.32,0,2.64,0,3.96,0,.07,0,.14,0,.24,0-.14.37-.27.72-.4,1.07-1.37,3.7-2.75,7.41-4.12,11.11-.08.21-.16.42-.25.62-.14.32-.37.52-.76.52-1.46,0-2.93.02-4.39.02-.14,0-.29-.01-.49-.02Z"/>
      <path class="cls-1" d="M132.66,13.46c-.25-.07-.5-.12-.74-.2-.3-.1-.62-.19-.9-.34-2.04-1.11-4-2.38-5.93-3.68-.79-.53-1.62-1.01-2.45-1.49-.39-.23-.83-.36-1.3-.38-.55-.02-.95.22-1.21.7-.29.55-.35,1.15-.36,1.76,0,.99,0,1.99,0,2.98,0,.44-.13.57-.56.57-1.17,0-2.34,0-3.5,0-.53,0-.65-.12-.64-.65,0-3.17,0-6.35,0-9.52,0-.84,0-1.68,0-2.53,0-.55.16-.69.71-.64,1.5.14,2.92.56,4.25,1.26,1.23.65,2.31,1.51,3.32,2.47.74.71,1.49,1.4,2.39,1.9.4.23.82.42,1.29.47.95.1,1.67-.37,1.9-1.28.11-.45.14-.92.15-1.39.02-.92,0-1.84,0-2.76,0-.07,0-.14,0-.22.03-.29.18-.43.48-.44.32,0,.65,0,.97,0,.59,0,1.17,0,1.76,0,.46,0,.58.11.58.56,0,4.13-.01,8.25-.02,12.38,0,.15-.07.3-.11.45h-.08Z"/>
      <path class="cls-1" d="M156.98,13.38c-1.02,0-2.05,0-3.07,0-.84,0-1.69-.02-2.53-.03-.28,0-.48-.17-.65-.37-.37-.46-.74-.93-1.09-1.4-1.96-2.59-3.92-5.17-5.87-7.77-.42-.56-.9-.83-1.61-.8-1.01.04-2.02.02-3.03.02-.2,0-.25.05-.25.25,0,2.7,0,5.4,0,8.1,0,.39.02.78.02,1.16,0,.05,0,.09,0,.14-.03.57-.22.73-.8.73-1.06,0-2.12,0-3.18,0-.07,0-.13,0-.2,0-.35-.02-.52-.17-.55-.52-.02-.24,0-.49,0-.73,0-3.61,0-7.21,0-10.82,0-.24-.01-.49,0-.73.02-.38.18-.53.56-.56.2-.01.39,0,.59,0,1.14,0,2.28-.01,3.42-.01,1.8,0,3.6.01,5.4.03.46,0,.92,0,1.36.2.31.14.58.33.81.59,1.83,2.12,3.66,4.24,5.49,6.36,1.66,1.93,3.32,3.87,4.97,5.81.08.09.14.2.2.3v.08Z"/>
      <path class="cls-1" d="M38.46,13.31c.04-.65.08-1.28.12-1.91.12-1.73.25-3.45.38-5.18.11-1.51.23-3.02.34-4.53.03-.38.05-.76.09-1.14.04-.35.2-.51.55-.53.45-.02.91-.02,1.37-.02,4.7,0,9.4,0,14.1.01.26,0,.51-.01.77,0,.44.02.61.21.59.66-.02.35-.05.7-.07,1.04-.09,1.48-.18,2.95-.27,4.43,0,.1-.01.21-.03.31-.07.51-.32.8-.83.91-.93.19-1.86.37-2.79.55-.35.07-.7.14-1.09.22.89,1.24,1.77,2.45,2.66,3.69.22-.25.44-.49.65-.73,2.97-3.46,5.93-6.92,8.89-10.39.41-.48.93-.71,1.56-.71,1.39.01,2.78.02,4.18.02,1.83,0,3.66-.01,5.48-.02.7,0,.88.17.88.87,0,1.51,0,3.01,0,4.52,0,2.38,0,4.75,0,7.13,0,.7-.15.85-.84.85-1.07,0-2.15,0-3.22,0-.46,0-.64-.16-.64-.62,0-1.04,0-2.08,0-3.12,0-2.16,0-4.32,0-6.48,0-.03,0-.06,0-.11-.04,0-.08-.02-.11-.02-1.25,0-2.49.02-3.74.01-.29,0-.5.12-.66.33-.5.64-1,1.29-1.5,1.94-1.85,2.45-3.71,4.91-5.56,7.37-.35.47-.8.71-1.4.7-2.15-.02-4.3-.02-6.45-.02-.46,0-.91,0-1.37-.02-.36-.01-.68-.15-.92-.43-1.16-1.36-2.32-2.73-3.49-4.09-.08-.09-.15-.19-.21-.29-.16-.28-.11-.46.17-.62.12-.07.25-.12.38-.17,1.56-.6,3.12-1.2,4.68-1.8.57-.22.71-.44.73-1.05.02-.51.07-1.02.1-1.53,0-.09.01-.18.02-.3h-.22c-2.14,0-4.28,0-6.42,0-.08,0-.16,0-.24.01-.62.07-.8.25-.85.87-.13,1.78-.24,3.56-.36,5.33-.09,1.29-.18,2.58-.27,3.88,0,.14-.05.19-.2.19-1.59,0-3.18,0-4.77,0-.04,0-.09,0-.16-.01Z"/>
      <path class="cls-1" d="M33.37,3.04c-.33,0-.64,0-.94,0-.6-.02-1.2-.03-1.8-.07-.9-.05-1.66.26-2.21.96-.61.77-1.18,1.58-1.77,2.37-1.62,2.15-3.25,4.3-4.87,6.45-.32.43-.75.64-1.29.64-1.46-.01-2.92-.02-4.38-.02-1.19,0-2.38,0-3.56.02-.5,0-.88-.17-1.2-.56-1.09-1.3-2.19-2.58-3.29-3.87-.46-.53-.45-.81.07-1.29,2.54-2.37,5.08-4.73,7.62-7.1.37-.35.82-.52,1.33-.53,1.14-.01,2.28-.02,3.42-.03.53,0,1.07-.01,1.6.03.27.02.53.16.8.24,0,.03.02.05.02.08-.21.23-.4.49-.64.69-2.83,2.31-5.68,4.62-8.52,6.92-.07.05-.13.11-.2.17.93,1.28,1.85,2.56,2.78,3.85.07-.08.13-.14.18-.2,3.14-3.66,6.28-7.32,9.41-10.99C26.39.26,26.94,0,27.65.01c1.31.02,2.63.02,3.94.02,1.5,0,3.01,0,4.51,0,.4,0,.79,0,1.19-.01.08,0,.16,0,.24.01.39.04.56.22.55.61-.01.42-.05.84-.09,1.26-.11,1.47-.23,2.94-.34,4.41-.12,1.52-.23,3.04-.34,4.56-.04.6-.09,1.19-.13,1.79-.04.54-.23.73-.77.73-1.1,0-2.2,0-3.3,0-.05,0-.11,0-.16,0-.35-.02-.51-.17-.5-.53.02-.43.07-.87.11-1.3.13-1.3.26-2.61.38-3.91.13-1.35.25-2.7.38-4.05.02-.18.03-.37.05-.57Z"/>
      <path class="cls-1" d="M100.16.03c-.21.27-.39.52-.58.74-3.39,3.96-6.78,7.91-10.16,11.88-.44.51-.95.74-1.62.74-2.8-.01-5.61,0-8.41-.01-.44,0-.87,0-1.31,0-.63,0-.8-.17-.8-.8,0-.8.01-1.59.01-2.39,0-1.94,0-3.88,0-5.82,0-1.18-.01-2.37-.02-3.55,0-.1,0-.2.02-.3.03-.3.19-.47.49-.49.3-.02.59,0,.89,0,.82,0,1.65,0,2.47-.01,0,0,.01,0,.02,0,.65-.03.83.15.83.8,0,2.69,0,5.38-.01,8.07,0,.26,0,.27.27.27,1.48,0,2.97-.01,4.45-.04.43,0,.7-.31.95-.61.31-.39.62-.79.92-1.19,1.64-2.16,3.28-4.33,4.9-6.5.47-.63,1.07-.84,1.84-.82,1.53.04,3.06.02,4.59.02.07,0,.14,0,.26,0Z"/>
      <path class="cls-1" d="M109.03,3.04c-.05,0-.08-.01-.1-.01-1.22,0-2.44.01-3.66.01-.34,0-.58.16-.77.41-.55.71-1.1,1.41-1.64,2.13-1.8,2.37-3.59,4.75-5.38,7.13-.35.46-.78.69-1.37.68-.91-.02-1.82-.02-2.73-.02-.73,0-1.46,0-2.2.01-.06,0-.13,0-.24,0,.13-.19.22-.36.34-.5,2.29-2.68,4.58-5.35,6.87-8.03,1.14-1.34,2.29-2.67,3.42-4.02.47-.56,1.05-.83,1.78-.82,1.91.01,3.83.02,5.74.02,1.23,0,2.45-.02,3.68-.03.78,0,1,.2,1,.97,0,2.98-.01,5.96-.02,8.94,0,.88.01,1.75.02,2.63,0,.07,0,.15,0,.22-.04.45-.22.63-.67.63-.42,0-.84-.03-1.27-.03-.71,0-1.42.02-2.14.03-.46,0-.63-.17-.63-.63,0-.86,0-1.71,0-2.57,0-2.19,0-4.37,0-6.56,0-.19-.02-.38-.03-.59Z"/>
      <path class="cls-1" d="M152.44.02c.26,0,.51.07.76.2.25.13.44.32.58.57.14.25.21.51.21.77s-.07.52-.2.77c-.14.25-.33.44-.57.57s-.5.2-.77.2-.52-.07-.77-.2c-.25-.14-.44-.33-.57-.57s-.2-.5-.2-.77.07-.53.21-.77c.14-.25.33-.44.58-.57.25-.13.5-.2.76-.2ZM152.44.27c-.22,0-.43.06-.63.17-.21.11-.37.27-.48.48-.12.21-.17.42-.17.64s.06.44.17.64.27.36.48.48c.2.11.42.17.64.17s.44-.06.64-.17c.2-.11.36-.27.48-.48s.17-.42.17-.64-.06-.44-.17-.64c-.12-.21-.28-.37-.48-.48-.21-.11-.42-.17-.63-.17ZM151.77,2.41V.75h.57c.19,0,.34.02.42.05.09.03.16.08.21.16s.08.16.08.24c0,.12-.04.23-.13.32s-.2.14-.34.15c.06.02.11.05.14.09.07.07.15.18.25.33l.2.32h-.33l-.15-.26c-.12-.21-.21-.33-.28-.39-.05-.04-.12-.06-.21-.06h-.16v.7h-.27ZM152.03,1.48h.32c.16,0,.26-.02.32-.07.06-.05.08-.11.08-.18,0-.05-.01-.09-.04-.13-.03-.04-.07-.07-.11-.09-.05-.02-.14-.03-.27-.03h-.3v.5Z"/>
    </g>
  </g>
</svg>