<?xml version="1.0" encoding="UTF-8"?>
<svg id="Capa_2" data-name="Capa 2" xmlns="http://www.w3.org/2000/svg" viewBox="0 0 883.39 137">
  <g id="Capa_1-2" data-name="Capa 1" fill="#ffffff">
    <g>
      <path d="M132.4,1.2l.4,6.2c-5.87,1.33-9.83,2.9-11.9,4.7-2.07,1.8-3.3,4.7-3.7,8.7-.67,7.33-1,20.2-1,38.6v76.2h-11c-18.27-28.8-43.4-65.73-75.4-110.8-.27,15.47-.4,29.13-.4,41,0,24,.6,44,1.8,60l16,4.4-1.2,5.8c-5.6-.4-12.2-.6-19.8-.6-10.4,0-18.8.2-25.2.6l-.4-6.2c5.6-1.73,9.37-3.37,11.3-4.9,1.93-1.53,3.3-4.37,4.1-8.5,1.47-8.4,2.2-25.13,2.2-50.2s-1-42.8-3-55.2L0,7,1.2,1.6h31.2l72.4,106.8c0-2.13.03-8.57.1-19.3.07-10.73.1-20.7.1-29.9,0-22.93-.53-38.87-1.6-47.8l-15-4.4,1.2-5.8c5.73.4,12.8.6,21.2.6s16-.2,21.6-.6Z"/>
      <path d="M277,101.2l8,1.2-4.8,33.8c-16.93-.53-35.6-.8-56-.8s-33.33.2-39.2.6l-.4-6.2c4.93-1.47,8.33-3.1,10.2-4.9,1.87-1.8,3.13-4.63,3.8-8.5,1.07-7.07,1.6-26.13,1.6-57.2,0-22.93-.53-38.87-1.6-47.8l-15-4.4,1.2-5.8c9.2.4,21.6.6,37.2.6,19.33,0,37-.27,53-.8l4.2,30.4-8,1.2c-2.93-9.87-7.53-17.07-13.8-21.6h-39.6c-.67,2.4-1.2,5.67-1.6,9.8-.67,9.2-1,22.6-1,40.2l44.6-.6-2,11.2-42.6-1.8c0,29.73.47,48.53,1.4,56.4h46c3.2-2.27,6.13-5.7,8.8-10.3,2.67-4.6,4.53-9.5,5.6-14.7Z"/>
      <path d="M397.4,69.6c8.13,12.67,14.9,22.8,20.3,30.4,5.4,7.6,10.3,13.47,14.7,17.6,4.4,4.13,8.1,6.9,11.1,8.3,3,1.4,6.63,2.43,10.9,3.1v6.8c-5.87-.27-10.67-.4-14.4-.4s-9,.13-15.4.4c-13.33-16.8-27.4-37.53-42.2-62.2-3.73.67-8,1.13-12.8,1.4,0,24.4.47,41.33,1.4,50.8l18.2,4.4-1.2,5.8c-5.73-.4-13.87-.6-24.4-.6s-18.33.2-24.2.6l-.4-6.2c4.93-1.47,8.33-3.1,10.2-4.9,1.87-1.8,3.13-4.63,3.8-8.5,1.07-7.07,1.6-26.13,1.6-57.2,0-22.93-.53-38.87-1.6-47.8l-15-4.4,1.2-5.8c5.73.4,13.47.6,23.2.6,3.2-.13,6.53-.27,10-.4,3.47-.13,6.2-.23,8.2-.3,2-.07,3.87-.1,5.6-.1,13.2,0,23.83,2.8,31.9,8.4,8.07,5.6,12.1,13.93,12.1,25,0,14.93-7.73,25.47-23.2,31.6-3.47,1.33-6.67,2.53-9.6,3.6ZM369.6,64.2c3.73.27,6.53.4,8.4.4,5.47,0,10.07-.4,13.8-1.2,6.53-2,11.67-5.3,15.4-9.9,3.73-4.6,5.6-10.23,5.6-16.9,0-7.87-2.67-14.17-8-18.9-5.33-4.73-13-7.1-23-7.1-4.67,0-7.87.07-9.6.2-.67,2.13-1.2,5.47-1.6,10-.67,7.33-1,20.2-1,38.6v4.8Z"/>
      <path d="M624.6,67.6c0,17.07-3.97,31.17-11.9,42.3-7.93,11.13-18.37,18.83-31.3,23.1-8.13,2.67-15.27,4-21.4,4-18.8,0-33.6-6.3-44.4-18.9-10.8-12.6-16.2-28.83-16.2-48.7,0-17.07,3.97-31.17,11.9-42.3,7.93-11.13,18.37-18.83,31.3-23.1,8.13-2.67,15.27-4,21.4-4,18.8,0,33.6,6.3,44.4,18.9,10.8,12.6,16.2,28.83,16.2,48.7ZM605.99,70.2c0-17.87-4.23-32.3-12.7-43.3-8.47-11-21.17-16.5-38.1-16.5-1.6,0-4.27.13-8,.4-8.93,3.2-16.03,9.73-21.3,19.6-5.27,9.87-7.9,22-7.9,36.4,0,17.87,4.23,32.3,12.7,43.3,8.47,11,21.17,16.5,38.1,16.5,1.6,0,4.27-.13,8-.4,8.93-3.2,16.03-9.73,21.3-19.6,5.27-9.87,7.9-22,7.9-36.4Z"/>
      <path d="M774.19,101.2l8,1.2-3.8,33.8c-16.93-.53-35.6-.8-56-.8s-34,.27-39.2.8l-.4-6.4c4.93-1.47,8.33-3.1,10.2-4.9,1.87-1.8,3.13-4.63,3.8-8.5,1.07-7.07,1.6-26.13,1.6-57.2,0-22.93-.53-38.87-1.6-47.8l-15-4.4,1.2-5.8c5.73.4,13.47.6,23.2.6,11.46,0,20.07-.2,25.8-.6l.4,6.2c-6.67,1.6-11.17,3.3-13.5,5.1-2.33,1.8-3.7,4.57-4.1,8.3-.93,10.27-1.4,23.13-1.4,38.6,0,35.6.53,57.87,1.6,66.8h41.8c4-2.27,7.53-5.67,10.6-10.2,3.07-4.53,5.33-9.47,6.8-14.8Z"/>
      <path d="M867.19,125.8l16.2,4.4-1.2,5.8c-5.87-.4-13.27-.6-22.2-.6-10.67,0-18.93.2-24.8.6l-.4-6.2c4.93-1.47,8.33-3.1,10.2-4.9,1.87-1.8,3.13-4.63,3.8-8.5,1.2-8,1.8-22.93,1.8-44.8,0-31.47-.6-51.53-1.8-60.2l-15-4.4,1.2-5.8c5.73.4,13.67.6,23.8.6,9.6,0,17.33-.2,23.2-.6l.4,6.2c-5.87,1.33-9.83,2.9-11.9,4.7-2.07,1.8-3.3,4.7-3.7,8.7-.8,8.8-1.2,25.67-1.2,50.6s.53,44.27,1.6,54.4Z"/>
    </g>
  </g>
</svg>