<?xml version="1.0" encoding="UTF-8"?>
<svg id="Capa_2" data-name="Capa 2" xmlns="http://www.w3.org/2000/svg" viewBox="0 0 256.46 70.32">
  <defs>
    <style>
      .cls-1 {
        fill: #ffffff;
      }
    </style>
  </defs>
  <g id="Layer_1" data-name="Layer 1">
    <g>
      <path class="cls-1" d="M0,35.11c0-10.12,3.36-18.5,10.09-25.13C16.84,3.33,25.08,0,34.81,0s18.44,3.36,25.08,10.08c6.67,6.66,10,15,10,25.03s-3.34,18.43-10.01,25.2c-6.67,6.67-14.75,10.01-24.24,10.01-10.48,0-19.03-3.27-25.66-9.81C3.33,53.93,0,45.47,0,35.11ZM9.05,33.89c0,9.44,2.69,17.08,8.07,22.92,5.44,5.81,12.04,8.72,19.8,8.72,6.97,0,12.7-2.72,17.17-8.16,4.5-5.5,6.76-12.53,6.76-21.09,0-9.19-2.66-16.72-7.97-22.59-5.29-5.94-11.79-8.91-19.51-8.91-7.01,0-12.81,2.59-17.4,7.78-4.6,5.19-6.9,12.3-6.9,21.33Z"/>
      <path class="cls-1" d="M75.81,68.86c2.09-2.19,3.28-5.61,3.57-10.27.19-3.19.28-6.77.28-10.74v-25.57c0-4-.09-7.6-.28-10.79-.28-4.66-1.47-8.08-3.57-10.27h1.17c.28,0,1.27.08,2.96.23,1.69.16,2.91.23,3.66.23s1.95-.08,3.61-.23c1.66-.16,2.63-.23,2.91-.23h1.17c-2.41,2.5-3.66,5.93-3.75,10.27-.13,5.63-.19,9.23-.19,10.79v25.57c0,1.53.06,5.11.19,10.74.09,4.35,1.34,7.77,3.75,10.27h-1.17c-.28,0-1.25-.08-2.91-.23-1.66-.16-2.86-.23-3.61-.23s-1.97.08-3.66.23c-1.69.16-2.67.23-2.96.23h-1.17ZM89.64,33.02l10.74-10.84c5.22-5.38,8.61-9.01,10.18-10.88,1.81-2.19,2.72-3.94,2.72-5.25,0-1.56-.74-3.17-2.2-4.83h1.31c.81,0,2.07.08,3.78.23,1.7.16,2.73.23,3.07.23.38,0,1.3-.08,2.77-.23,1.47-.16,2.53-.23,3.19-.23h1.41l-9.66,10.08-10.7,10.98-9.01,9.1c7.97,11.1,15.78,20.87,23.41,29.32,4,4.44,6.99,7.22,8.96,8.35-1.28.84-2.92,1.27-4.93,1.27-3.88,0-8.07-2.66-12.57-7.97-6.85-7.97-14.34-17.75-22.47-29.32Z"/>
      <path class="cls-1" d="M135.75,68.86c2.09-2.19,3.28-5.61,3.57-10.27.19-3.19.28-6.77.28-10.74v-25.57c0-4-.09-7.6-.28-10.79-.28-4.66-1.47-8.08-3.57-10.27h1.17c.28,0,1.27.08,2.95.23,1.69.16,2.91.23,3.66.23s1.95-.08,3.61-.23c1.66-.16,2.63-.23,2.91-.23h1.17c-2.41,2.5-3.66,5.93-3.75,10.27-.13,5.63-.19,9.23-.19,10.79v25.57c0,1.53.06,5.11.19,10.74.09,4.35,1.34,7.77,3.75,10.27h-1.17c-.28,0-1.25-.08-2.91-.23-1.66-.16-2.86-.23-3.61-.23s-1.97.08-3.66.23c-1.69.16-2.67.23-2.95.23h-1.17ZM149.59,33.02l10.74-10.84c5.22-5.38,8.61-9.01,10.18-10.88,1.81-2.19,2.72-3.94,2.72-5.25,0-1.56-.74-3.17-2.2-4.83h1.31c.81,0,2.07.08,3.78.23,1.7.16,2.73.23,3.07.23.38,0,1.3-.08,2.77-.23,1.47-.16,2.53-.23,3.19-.23h1.41l-9.66,10.08-10.7,10.98-9.01,9.1c7.97,11.1,15.78,20.87,23.41,29.32,4,4.44,6.99,7.22,8.96,8.35-1.28.84-2.92,1.27-4.93,1.27-3.88,0-8.07-2.66-12.57-7.97-6.85-7.97-14.34-17.75-22.47-29.32Z"/>
      <path class="cls-1" d="M186.56,35.11c0-10.12,3.36-18.5,10.09-25.13,6.76-6.66,14.99-9.98,24.72-9.98s18.44,3.36,25.08,10.08c6.67,6.66,10,15,10,25.03s-3.34,18.43-10.01,25.2c-6.67,6.67-14.75,10.01-24.24,10.01-10.48,0-19.03-3.27-25.66-9.81-6.66-6.57-9.99-15.04-9.99-25.39ZM195.61,33.89c0,9.44,2.69,17.08,8.07,22.92,5.44,5.81,12.04,8.72,19.8,8.72,6.97,0,12.7-2.72,17.17-8.16,4.5-5.5,6.75-12.53,6.75-21.09,0-9.19-2.66-16.72-7.97-22.59-5.29-5.94-11.79-8.91-19.51-8.91-7.01,0-12.81,2.59-17.4,7.78-4.6,5.19-6.9,12.3-6.9,21.33Z"/>
    </g>
  </g>
</svg>