<?xml version="1.0" encoding="UTF-8"?>
<svg id="Capa_2" data-name="Capa 2" xmlns="http://www.w3.org/2000/svg" viewBox="0 0 521.87 58.53">
  <defs>
    <style>
      .cls-1 {
        fill: #efefef;
      }
    </style>
  </defs>
  <g id="Brand">
    <g>
      <path class="cls-1" d="M506.08,7.83c0-4.42,3.45-7.83,7.92-7.83s7.88,3.37,7.88,7.83-3.37,7.87-7.88,7.87-7.92-3.41-7.92-7.87ZM520.69,7.83c0-3.82-2.88-6.7-6.7-6.7s-6.7,2.88-6.7,6.7,2.84,6.74,6.7,6.74,6.7-2.88,6.7-6.74ZM511.07,12.14V3.37h3.17c1.91,0,3.13,1.01,3.13,2.68,0,1.14-.61,2.07-1.83,2.48l1.99,3.61h-1.42l-1.79-3.33h-1.99v3.33h-1.26ZM514.2,4.55h-1.87v3.08h1.87c1.14,0,1.83-.53,1.83-1.54s-.69-1.54-1.83-1.54Z"/>
      <g>
        <path class="cls-1" d="M59.71,17.69c-1.57-3.51-3.77-6.62-6.53-9.26-2.77-2.64-6.07-4.7-9.81-6.13C39.64.88,35.5.15,31.05.15s-8.53.72-12.28,2.15c-3.76,1.43-7.09,3.49-9.88,6.13-2.8,2.64-5,5.76-6.55,9.28-1.55,3.53-2.34,7.44-2.34,11.64s.79,8.11,2.34,11.64c1.55,3.52,3.75,6.64,6.55,9.28,2.79,2.63,6.12,4.7,9.88,6.13,3.74,1.42,7.88,2.15,12.28,2.15s8.6-.72,12.32-2.15c3.74-1.43,7.04-3.48,9.8-6.09,2.77-2.61,4.97-5.73,6.55-9.27,1.58-3.56,2.38-7.48,2.38-11.68s-.8-8.12-2.38-11.65ZM31.05,54.22c-3.88,0-7.49-.63-10.75-1.86-3.23-1.23-6.08-2.99-8.46-5.24-2.38-2.24-4.25-4.89-5.56-7.88-1.31-2.98-1.97-6.31-1.97-9.9s.66-6.93,1.97-9.9c1.31-2.99,3.18-5.64,5.56-7.88,2.38-2.25,5.23-4.01,8.46-5.24,3.25-1.24,6.87-1.86,10.75-1.86s7.55.63,10.78,1.86c3.21,1.23,6.03,2.99,8.38,5.23,2.36,2.25,4.23,4.9,5.57,7.9,1.33,2.98,2,6.3,2,9.89s-.68,6.93-2.01,9.93c-1.34,3.01-3.21,5.67-5.56,7.89-2.36,2.22-5.18,3.97-8.39,5.2-3.23,1.24-6.86,1.86-10.78,1.86Z"/>
        <path class="cls-1" d="M113.85,3.62c-3.72-1.66-8.16-2.49-13.3-2.49h-25.71v56.25h15.91v-14.71h9.8c5.14,0,9.58-.84,13.3-2.53,3.72-1.69,6.6-4.08,8.64-7.19,2.04-3.11,3.05-6.78,3.05-11.01s-1.02-8-3.05-11.13c-2.04-3.13-4.92-5.53-8.64-7.19ZM107.02,27.96c-1.63,1.45-4.11,2.17-7.43,2.17h-8.84V13.66h8.84c3.32,0,5.8.72,7.43,2.17,1.63,1.45,2.45,3.48,2.45,6.11s-.82,4.58-2.45,6.03Z"/>
        <polygon class="cls-1" points="149.59 34.79 174.58 34.79 174.58 22.9 149.59 22.9 149.59 13.42 177.95 13.42 177.95 1.12 133.84 1.12 133.84 57.38 179 57.38 179 45.08 149.59 45.08 149.59 34.79"/>
        <polygon class="cls-1" points="226.93 1.12 226.93 31.1 202.1 1.12 189 1.12 189 57.38 204.59 57.38 204.59 27.4 229.42 57.38 242.52 57.38 242.52 1.12 226.93 1.12"/>
        <g>
          <polygon class="cls-1" points="252.81 57.38 268.73 57.38 268.73 38.09 293.56 38.09 293.56 25.79 268.73 25.79 268.73 13.42 296.93 13.42 296.93 1.12 252.81 1.12 252.81 57.38"/>
          <rect class="cls-1" x="304.4" y="1.12" width="15.91" height="56.25"/>
          <polygon class="cls-1" points="347.56 1.12 331.64 1.12 331.64 57.38 374.4 57.38 374.4 44.76 347.56 44.76 347.56 1.12"/>
          <polygon class="cls-1" points="432.81 1.12 413.56 33.62 393.76 1.12 380.66 1.12 380.66 57.38 395.37 57.38 395.37 28.37 409.75 51.83 416.82 51.83 431.31 27.53 431.45 57.38 446.07 57.38 445.91 1.12 432.81 1.12"/>
          <path class="cls-1" d="M500.27,32.99c-1.15-1.95-2.67-3.54-4.54-4.74-1.88-1.21-3.95-2.17-6.23-2.89-2.28-.72-4.55-1.33-6.83-1.81-2.28-.48-4.37-.95-6.27-1.41-1.9-.45-3.43-1.04-4.58-1.77-1.15-.72-1.73-1.7-1.73-2.93,0-.96.29-1.82.88-2.57.59-.75,1.55-1.35,2.89-1.81,1.34-.45,3.11-.68,5.3-.68,2.46,0,5.01.36,7.63,1.08,2.62.72,5.28,1.81,7.96,3.25l4.9-11.81c-2.79-1.61-5.96-2.82-9.52-3.66-3.56-.83-7.19-1.25-10.89-1.25-5.52,0-10.12.83-13.82,2.49-3.7,1.66-6.47,3.86-8.32,6.59-1.85,2.73-2.77,5.79-2.77,9.16,0,3,.59,5.48,1.77,7.43,1.18,1.96,2.7,3.54,4.58,4.74,1.87,1.21,3.95,2.18,6.23,2.93,2.28.75,4.55,1.37,6.83,1.85,2.28.48,4.35.96,6.23,1.45,1.87.48,3.4,1.1,4.58,1.85,1.18.75,1.77,1.77,1.77,3.05,0,.91-.31,1.7-.92,2.37-.62.67-1.59,1.21-2.93,1.61-1.34.4-3.11.6-5.3.6-3.27,0-6.55-.52-9.84-1.57-3.29-1.04-6.2-2.37-8.72-3.98l-5.22,11.73c2.68,1.82,6.15,3.31,10.41,4.46,4.26,1.15,8.69,1.73,13.3,1.73,5.57,0,10.19-.83,13.86-2.49,3.67-1.66,6.43-3.87,8.28-6.63,1.85-2.76,2.77-5.77,2.77-9.04,0-2.95-.58-5.4-1.73-7.35Z"/>
        </g>
      </g>
    </g>
  </g>
</svg>