<svg width="46" height="46" viewBox="0 0 46 46" fill="none" xmlns="http://www.w3.org/2000/svg">
<path d="M11.5 6.90002C8.96284 6.90002 6.90002 8.96284 6.90002 11.5V34.5C6.90002 37.0372 8.96284 39.1 11.5 39.1H18.5582V28.6206H14.7631V23H18.5582V20.5778C18.5582 14.3175 21.39 11.4138 27.5425 11.4138C28.7069 11.4138 30.7194 11.6438 31.546 11.8738V16.9625C31.1147 16.9194 30.36 16.8906 29.4185 16.8906C26.3997 16.8906 25.2353 18.0335 25.2353 21.0019V23H31.2441L30.2091 28.6206H25.2281V39.1H34.5C37.0372 39.1 39.1 37.0372 39.1 34.5V11.5C39.1 8.96284 37.0372 6.90002 34.5 6.90002H11.5Z" fill="black"/>
</svg>
