<svg width="114" height="27" viewBox="0 0 114 27" fill="none" xmlns="http://www.w3.org/2000/svg">
<path d="M13.4345 0.00292664C21.138 -0.152843 27.3906 5.92908 27.3906 13.5514C27.3906 21.1737 21.2922 26.9995 13.7219 26.9995C5.71699 27.0029 -0.605636 20.3602 0.0462528 12.4298C0.610523 5.56216 6.4565 0.14485 13.4345 0.00292664ZM13.7219 22.4856C18.7162 22.4856 22.6591 18.4356 22.6591 13.5548C22.6591 8.35216 18.3622 4.1637 13.056 4.54446C9.0991 4.82831 5.78708 7.736 4.94944 11.5679C3.70174 17.2864 8.00211 22.4856 13.7219 22.4856Z" fill="#0A0A0A"/>
<path d="M50.5326 0.522156V26.4837H43.0148C35.4445 26.4837 29.3462 20.4606 29.3462 13.0356V0.522156H34.0776V13.0356C34.0776 17.9164 38.0205 21.9664 43.0148 21.9664H45.8011V0.522156H50.5326Z" fill="#0A0A0A"/>
<path d="M92.8142 26.4837V0.522156H100.332C107.902 0.522156 114.001 6.54523 114.001 13.9702V26.4837H109.269V13.9702C109.269 9.08946 105.326 5.03946 100.332 5.03946H97.5457V26.4837H92.8142Z" fill="#0A0A0A"/>
<path d="M53.5398 26.4837V0.522156H61.0576C68.6279 0.522156 74.7262 6.54523 74.7262 13.9702V26.4837H69.9947V13.9702C69.9947 9.08946 66.0519 5.03946 61.0576 5.03946H58.2712V26.4837H53.5398Z" fill="#0A0A0A"/>
<path d="M53.5398 26.4837V0.522156H76.1386C83.709 0.522156 89.8073 6.54523 89.8073 13.9702V26.4837H85.0758V13.9702C85.0758 9.08946 81.1329 5.03946 76.1386 5.03946H58.2712V26.4837H53.5398Z" fill="#0A0A0A"/>
<path d="M93.5608 19.7337V14.9118H113.254V19.7337H93.5608Z" fill="#0A0A0A"/>
</svg>
